<svg id="Layer_1" data-name="Layer 1" xmlns="http://www.w3.org/2000/svg" viewBox="0 0 117.14 81.23"><defs><style>.cls-1{fill:#dd0031;}.cls-2{fill:#c3002f;}.cls-3{fill:#fff;}.cls-4{fill:#f5655f;fill-rule:evenodd;}</style></defs><title>angular-day-logo</title><polygon class="cls-1" points="36.4 4.73 36.4 4.73 36.4 4.73 3.32 16.52 8.37 60.26 36.4 75.78 36.4 75.78 36.4 75.78 64.43 60.26 69.47 16.52 36.4 4.73"/><polygon class="cls-2" points="36.4 4.73 36.4 12.62 36.4 12.58 36.4 48.57 36.4 48.57 36.4 75.78 36.4 75.78 64.43 60.26 69.47 16.52 36.4 4.73"/><path class="cls-3" d="M36.4,12.58,15.72,58.94h7.71l4.16-10.37H45.14L49.3,58.94H57L36.4,12.58Zm6,29.59H30.36l6-14.53Z"/><path class="cls-4" d="M101.87,71.56a5.94,5.94,0,1,1,5.94-5.94A6,6,0,0,1,101.87,71.56Zm5-14.46V26a14.72,14.72,0,0,0-4.66-10.2A15,15,0,0,0,92,11.13H87V1.23L72.15,16.09,87,30.95V21h5a5.18,5.18,0,0,1,3.42,1.54A4.67,4.67,0,0,1,96.92,26V57.1a9.91,9.91,0,1,0,9.91,0Z"/></svg>