<svg id="Layer_1" data-name="Layer 1" xmlns="http://www.w3.org/2000/svg" viewBox="0 0 396 99"><defs><style>.cls-1{fill:#626c8e;}.cls-2{fill:#f5655f;fill-rule:evenodd;}</style></defs><title>Artboard 1</title><path class="cls-1" d="M6,22.33A19,19,0,0,1,7.17,16a17.73,17.73,0,0,1,3.3-5.7A16.63,16.63,0,0,1,15.8,6.18a16,16,0,0,1,7.15-1.55A14.94,14.94,0,0,1,31.1,6.78a13.37,13.37,0,0,1,5,5.6l-3.55,2.3a10.31,10.31,0,0,0-1.92-2.85A9.91,9.91,0,0,0,28.22,10,10.58,10.58,0,0,0,25.5,9a13.13,13.13,0,0,0-2.75-.3,10.85,10.85,0,0,0-5.23,1.23,12.09,12.09,0,0,0-3.83,3.2,13.83,13.83,0,0,0-2.32,4.45,16.54,16.54,0,0,0-.78,5,15.34,15.34,0,0,0,.92,5.32,14.67,14.67,0,0,0,2.58,4.48,12.54,12.54,0,0,0,3.9,3.1,10.6,10.6,0,0,0,4.9,1.15,12.41,12.41,0,0,0,2.88-.35,10.51,10.51,0,0,0,2.83-1.12,12.06,12.06,0,0,0,2.53-1.95A9.54,9.54,0,0,0,33,30.33l3.75,2a11.06,11.06,0,0,1-2.37,3.53A15,15,0,0,1,31,38.48a17.55,17.55,0,0,1-4.08,1.6,16.93,16.93,0,0,1-4.2.55A14.19,14.19,0,0,1,16,39a17.85,17.85,0,0,1-5.28-4.18A19.09,19.09,0,0,1,7.27,29,18.89,18.89,0,0,1,6,22.33Z"/><path class="cls-1" d="M59.45,40.58a15.14,15.14,0,0,1-6.83-1.52A16.84,16.84,0,0,1,47.35,35,18.39,18.39,0,0,1,44,29.23a19,19,0,0,1-1.2-6.65A18.46,18.46,0,0,1,44,15.78,18.76,18.76,0,0,1,47.55,10a17,17,0,0,1,5.33-4,15.23,15.23,0,0,1,6.67-1.48,14.59,14.59,0,0,1,6.8,1.58,17.41,17.41,0,0,1,5.25,4.13,19.13,19.13,0,0,1,4.6,12.35,18.46,18.46,0,0,1-1.28,6.8,18.69,18.69,0,0,1-3.5,5.73,16.84,16.84,0,0,1-5.3,3.95A15.22,15.22,0,0,1,59.45,40.58Zm-12.15-18a15.83,15.83,0,0,0,.88,5.23,14.44,14.44,0,0,0,2.47,4.48,12,12,0,0,0,3.85,3.1,10.81,10.81,0,0,0,5,1.15,10.49,10.49,0,0,0,5.1-1.23,12.44,12.44,0,0,0,3.83-3.2,14.3,14.3,0,0,0,2.4-4.48,16,16,0,0,0,.82-5,15.86,15.86,0,0,0-.87-5.23,13.86,13.86,0,0,0-2.5-4.45,12.52,12.52,0,0,0-3.85-3.08,11.28,11.28,0,0,0-10,0A12.3,12.3,0,0,0,50.58,13a14.36,14.36,0,0,0-2.43,4.45A15.75,15.75,0,0,0,47.3,22.58Z"/><path class="cls-1" d="M89.95,13.23v27.1h-4.5V4.83h3.5l22,27.65V4.88h4.5V40.33h-3.8Z"/><path class="cls-1" d="M152.55,8.83H140.3v31.5h-4.5V8.83H123.55v-4h29Z"/><path class="cls-1" d="M160.65,40.33V4.83h15.2a9.64,9.64,0,0,1,4.33,1,10.88,10.88,0,0,1,3.4,2.6,12.42,12.42,0,0,1,2.23,3.65,11.16,11.16,0,0,1,.8,4.13,12.19,12.19,0,0,1-.53,3.57,11,11,0,0,1-1.5,3.13,10,10,0,0,1-2.35,2.4,9.16,9.16,0,0,1-3.08,1.45l8.6,13.6h-5.1l-8.1-12.75h-9.4V40.33Zm4.5-16.75H175.9a5.29,5.29,0,0,0,2.53-.6,6,6,0,0,0,1.92-1.62A7.88,7.88,0,0,0,181.6,19a8.8,8.8,0,0,0,.45-2.8,7.61,7.61,0,0,0-.53-2.83,8.3,8.3,0,0,0-1.4-2.35,6.34,6.34,0,0,0-2-1.6,5.57,5.57,0,0,0-2.47-.58H165.15Z"/><path class="cls-1" d="M196.5,40.33V4.83H201v35.5Z"/><path class="cls-1" d="M239.75,31.18a8.47,8.47,0,0,1-.83,3.75,8.72,8.72,0,0,1-2.25,2.9,10.31,10.31,0,0,1-3.3,1.85,12.2,12.2,0,0,1-4,.65H212.5V4.83h17.65a7,7,0,0,1,3.35.8A8.37,8.37,0,0,1,236,7.71a9.53,9.53,0,0,1,1.63,2.9,9.77,9.77,0,0,1,.58,3.27,9.49,9.49,0,0,1-1.33,4.9,8.12,8.12,0,0,1-3.77,3.35A8.93,8.93,0,0,1,238,25.46,9.43,9.43,0,0,1,239.75,31.18ZM217,8.73V20.58h11.3a5.05,5.05,0,0,0,2.2-.48,5.47,5.47,0,0,0,1.72-1.27,6.21,6.21,0,0,0,1.58-4.15,6.85,6.85,0,0,0-.4-2.35,6.22,6.22,0,0,0-1.08-1.9,4.72,4.72,0,0,0-1.65-1.25,4.89,4.89,0,0,0-2.08-.45Zm18.2,21.65a6.55,6.55,0,0,0-.42-2.32,6.66,6.66,0,0,0-1.15-2,5.46,5.46,0,0,0-1.72-1.35,4.87,4.87,0,0,0-2.2-.5H217v12.2h12.35a5.28,5.28,0,0,0,2.3-.5,6.37,6.37,0,0,0,1.85-1.33,6.1,6.1,0,0,0,1.7-4.23Z"/><path class="cls-1" d="M263.65,36.53a10.07,10.07,0,0,0,5.15-1.2,9.51,9.51,0,0,0,3.28-3.12,12.87,12.87,0,0,0,1.72-4.4,25.34,25.34,0,0,0,.5-5v-18h4.5v18a27.45,27.45,0,0,1-.83,6.82,16.29,16.29,0,0,1-2.62,5.68,12.69,12.69,0,0,1-4.67,3.88,17.79,17.79,0,0,1-14.12-.08,13,13,0,0,1-4.67-4,16.11,16.11,0,0,1-2.55-5.7,28.21,28.21,0,0,1-.78-6.62v-18H253v18a24.59,24.59,0,0,0,.53,5.13,12.93,12.93,0,0,0,1.75,4.38,9.41,9.41,0,0,0,3.25,3.07A10,10,0,0,0,263.65,36.53Z"/><path class="cls-1" d="M315.4,8.83H303.15v31.5h-4.5V8.83H286.4v-4h29Z"/><path class="cls-1" d="M336.85,40.58A15.14,15.14,0,0,1,330,39.06,16.84,16.84,0,0,1,324.75,35a18.39,18.39,0,0,1-3.4-5.77,19,19,0,0,1-1.2-6.65,18.46,18.46,0,0,1,1.27-6.8A18.76,18.76,0,0,1,324.95,10a17,17,0,0,1,5.33-4,15.23,15.23,0,0,1,6.67-1.48,14.59,14.59,0,0,1,6.8,1.58A17.41,17.41,0,0,1,349,10.28a19.13,19.13,0,0,1,4.6,12.35,18.46,18.46,0,0,1-1.28,6.8,18.69,18.69,0,0,1-3.5,5.73,16.84,16.84,0,0,1-5.3,3.95A15.22,15.22,0,0,1,336.85,40.58Zm-12.15-18a15.83,15.83,0,0,0,.88,5.23A14.44,14.44,0,0,0,328,32.28a12,12,0,0,0,3.85,3.1,10.81,10.81,0,0,0,5,1.15,10.49,10.49,0,0,0,5.1-1.23,12.44,12.44,0,0,0,3.83-3.2,14.3,14.3,0,0,0,2.4-4.48,16,16,0,0,0,.82-5,15.86,15.86,0,0,0-.87-5.23,13.86,13.86,0,0,0-2.5-4.45,12.52,12.52,0,0,0-3.85-3.08,11.28,11.28,0,0,0-10,0A12.3,12.3,0,0,0,328,13a14.36,14.36,0,0,0-2.43,4.45A15.75,15.75,0,0,0,324.7,22.58Z"/><path class="cls-1" d="M362.85,40.33V4.83H378a9.64,9.64,0,0,1,4.33,1,10.88,10.88,0,0,1,3.4,2.6A12.42,12.42,0,0,1,388,12.06a11.16,11.16,0,0,1,.8,4.13,12.19,12.19,0,0,1-.53,3.57,11,11,0,0,1-1.5,3.13,10,10,0,0,1-2.35,2.4,9.16,9.16,0,0,1-3.08,1.45l8.6,13.6h-5.1l-8.1-12.75h-9.4V40.33Zm4.5-16.75H378.1a5.29,5.29,0,0,0,2.53-.6,6,6,0,0,0,1.92-1.62A7.88,7.88,0,0,0,383.8,19a8.8,8.8,0,0,0,.45-2.8,7.61,7.61,0,0,0-.53-2.83,8.3,8.3,0,0,0-1.4-2.35,6.34,6.34,0,0,0-2-1.6,5.57,5.57,0,0,0-2.47-.58H367.35Z"/><path class="cls-1" d="M8.75,95.33V59.83h11.8a18.15,18.15,0,0,1,7.38,1.4A14.85,14.85,0,0,1,33.2,65a15.9,15.9,0,0,1,3.15,5.63,22.06,22.06,0,0,1,1,6.88,21.58,21.58,0,0,1-1.17,7.32,15.77,15.77,0,0,1-3.37,5.6,15.06,15.06,0,0,1-5.33,3.6,18.29,18.29,0,0,1-7,1.27Zm26.1-17.8a19.29,19.29,0,0,0-1-6.18,13.92,13.92,0,0,0-2.77-4.87,12.65,12.65,0,0,0-4.48-3.2,15.18,15.18,0,0,0-6.1-1.15H11.3V93h9.25a15.23,15.23,0,0,0,6.17-1.18,12.32,12.32,0,0,0,4.47-3.28,14.32,14.32,0,0,0,2.73-4.92A19.59,19.59,0,0,0,34.85,77.53Z"/><path class="cls-1" d="M57.3,59.83h2.2l15,35.5H71.8l-5-11.7H49.9l-5,11.7H42.2Zm8.85,21.7L58.4,62.93l-7.9,18.6Z"/><path class="cls-1" d="M77.85,59.83l12.4,19.65L102.7,59.83h2.85l-14,22.1v13.4H89V81.83l-14-22Z"/><path class="cls-1" d="M133.8,65.73q-3.45-3.85-9.75-3.85-5.2,0-7.58,2a6.57,6.57,0,0,0-2.37,5.33,6,6,0,0,0,.6,2.83,5.15,5.15,0,0,0,1.88,1.92,12.41,12.41,0,0,0,3.22,1.35q1.95.55,4.7,1.15t5.17,1.33a15,15,0,0,1,4,1.82,7.74,7.74,0,0,1,2.5,2.7,8.14,8.14,0,0,1,.88,3.95,8.65,8.65,0,0,1-.92,4.1,8.23,8.23,0,0,1-2.6,2.93,12.22,12.22,0,0,1-4,1.78,20.74,20.74,0,0,1-5.17.6,20,20,0,0,1-14-5.3l1.35-2A16.28,16.28,0,0,0,117.1,92a18.56,18.56,0,0,0,7.3,1.38,13.3,13.3,0,0,0,7.27-1.7,5.72,5.72,0,0,0,2.63-5.15,5.91,5.91,0,0,0-.7-3,6.3,6.3,0,0,0-2.07-2.12A13.82,13.82,0,0,0,128,79.88q-2.1-.65-4.9-1.25t-5-1.28a13.23,13.23,0,0,1-3.65-1.7,6.82,6.82,0,0,1-2.22-2.48,7.9,7.9,0,0,1-.75-3.65,9.37,9.37,0,0,1,.92-4.25A9,9,0,0,1,115,62.16a11.48,11.48,0,0,1,4-1.93,18.74,18.74,0,0,1,5.1-.65,17.26,17.26,0,0,1,6.15,1,14.51,14.51,0,0,1,4.9,3.13Z"/><path class="cls-2" d="M169.82,96.74a3.39,3.39,0,1,1,3.39-3.39A3.42,3.42,0,0,1,169.82,96.74Zm2.82-8.25V70.76A8.39,8.39,0,0,0,170,64.95a8.57,8.57,0,0,0-5.82-2.65h-2.82V56.64l-8.47,8.47,8.47,8.47V67.94h2.82a3,3,0,0,1,1.95.88,2.66,2.66,0,0,1,.88,1.95V88.5a5.65,5.65,0,1,0,5.65,0Z"/></svg>