<?xml version="1.0" encoding="utf-8"?>
<!-- Generator: Adobe Illustrator 20.1.0, SVG Export Plug-In . SVG Version: 6.00 Build 0)  -->
<svg version="1.1" id="Layer_1" xmlns="http://www.w3.org/2000/svg" xmlns:xlink="http://www.w3.org/1999/xlink" x="0px" y="0px"
	 viewBox="0 0 245 151.1" style="enable-background:new 0 0 245 151.1;" xml:space="preserve">
<style type="text/css">
	.st0{enable-background:new    ;}
	.st1{fill:#626C8E;}
	.st2{fill:#F5655F;}
</style>
<g class="st0">
	<path class="st1" d="M4.5,11.3c0-4,2.6-6.2,6.8-6.2s6.4,2.2,6.4,6.2v9.5h-3.2v-9c0-2.4-0.7-4.3-3.2-4.3c-2.2,0-3.6,1.4-3.6,3.6
		v46.3c0,2.2,1.4,3.6,3.6,3.6c2.6,0,3.2-1.4,3.2-4.3v-9.8h3.2v10.3c0,4-2.2,6.2-6.4,6.2S4.5,61,4.5,57.1V11.3z"/>
	<path class="st1" d="M40.6,57.1c0,4-2.5,6.2-6.9,6.2s-7.1-2.2-7.1-6.2V11.3c0-4,2.6-6.2,7.1-6.2s6.9,2.2,6.9,6.2V57.1z M37.4,11.3
		c0-2.6-1.5-4-3.7-4c-2.4,0-3.8,1.4-3.8,4v45.6c0,2.6,1.5,4,3.8,4s3.7-1.4,3.7-4V11.3z"/>
	<path class="st1" d="M50.6,5.3h4.8l5.4,37.2c0.6,4.6,1.6,11.1,2.6,18.1h0.1c-0.4-8-0.7-15.5-0.7-18.6V5.3h3.2V63h-4.8l-5.7-36.7
		c-0.5-3.1-1.4-10.9-2.2-18.6h-0.1c0.1,7.5,0.6,14.8,0.6,16.7v38.5h-3.2V5.3z"/>
	<path class="st1" d="M78.5,7.7h-5.7V5.3h14.5v2.4h-5.7v55.2h-3.2V7.7H78.5z"/>
	<path class="st1" d="M94.1,5.3h7.2c3.8,0,6.6,1.7,6.6,5.3v16.9c0,3.1-0.9,5.3-4.9,5.7v0.1c2.8,0.2,4.9,1.7,4.9,5.2v24.2h-3.2V38.7
		c0-2.1-1.2-4.2-4.3-4.2h-3V63h-3.2V5.3z M100.4,32.2c2.7,0,4.2-1.2,4.2-3.8V11.3c0-2.5-1.4-3.6-4-3.6h-3.5v24.4h3.2V32.2z"/>
	<path class="st1" d="M118.3,5.3h3.2V63h-3.2V5.3z"/>
	<path class="st1" d="M131.7,5.3h6.8c4,0,6.7,1.7,6.7,6.2v16.7c0,3.2-2.5,4.7-5.1,4.8v0.1c3.1,0.1,5.4,1.2,5.4,5.3v18.2
		c0,4.3-2.6,6.2-6.2,6.2h-7.8V5.3H131.7z M138.3,32.2c3,0,3.7-2.1,3.7-4.1V11.3c0-2.6-0.7-3.6-4-3.6h-3.2v24.4h3.5V32.2z
		 M134.9,34.5v26h3.2c3.2,0,4.3-1.1,4.3-3.5V38.7c0-2.8-1.4-4.2-4.2-4.2C138.2,34.5,134.9,34.5,134.9,34.5z"/>
	<path class="st1" d="M169.5,5.3v51.7c0,4-2.5,6.2-6.9,6.2c-4.5,0-7.1-2.2-7.1-6.2V5.3h3.2v51.6c0,2.6,1.5,4,3.8,4s3.7-1.4,3.7-4
		V5.3H169.5z"/>
	<path class="st1" d="M182,7.7h-5.7V5.3h14.5v2.4h-5.7v55.2h-3.2V7.7H182z"/>
	<path class="st1" d="M211.6,57.1c0,4-2.5,6.2-6.9,6.2c-4.5,0-7.1-2.2-7.1-6.2V11.3c0-4,2.6-6.2,7.1-6.2c4.5,0,6.9,2.2,6.9,6.2V57.1
		z M208.5,11.3c0-2.6-1.5-4-3.7-4c-2.4,0-3.8,1.4-3.8,4v45.6c0,2.6,1.5,4,3.8,4s3.7-1.4,3.7-4V11.3z"/>
	<path class="st1" d="M221.6,5.3h7.2c3.8,0,6.6,1.7,6.6,5.3v16.9c0,3.1-0.9,5.3-4.9,5.7v0.1c2.8,0.2,4.9,1.7,4.9,5.2v24.2h-3.2V38.7
		c0-2.1-1.2-4.2-4.3-4.2h-3V63h-3.2L221.6,5.3L221.6,5.3z M227.9,32.2c2.7,0,4.2-1.2,4.2-3.8V11.3c0-2.5-1.4-3.6-4-3.6h-3.5v24.4
		h3.2L227.9,32.2L227.9,32.2z"/>
</g>
<g class="st0">
	<path class="st1" d="M5.6,85.1h6.8c4.7,0,7.2,1.9,7.2,6.2v45.3c0,4.3-2.5,6.2-7.2,6.2H5.6V85.1z M12.2,140.3c2.8,0,4.3-1,4.3-3.5
		V91.1c0-2.5-1.5-3.5-4.3-3.5H9v52.8L12.2,140.3L12.2,140.3z"/>
</g>
<g class="st0">
	<path class="st1" d="M38.9,126H31l-1.7,16.8h-2.8l6.4-57.6h4.5l6.7,57.6h-3.2L38.9,126z M38.6,123.5l-2-18.9
		c-0.6-5.7-1.5-11.6-1.6-17.4h-0.1c-0.6,5.7-0.9,11.6-1.5,17.4l-2.1,18.9H38.6z"/>
</g>
<g class="st0">
	<path class="st1" d="M60.5,85.1h3.2L57.1,120v22.8h-3.2V120l-6.7-34.9h3.2l4.9,31.2h0.1L60.5,85.1z"/>
	<path class="st1" d="M72.7,137.2c0,1.9,0.7,3.5,3.7,3.5c2.7,0,4-1,4-3.7v-9.9c0-3.1-0.6-4.8-1.7-7.4l-6.7-12.7
		c-1.4-2.6-2.1-5.6-2.1-7.8v-8.4c0-3.7,2.6-5.9,6.7-5.9c4.3,0,6.6,1.6,6.6,5.3v10.3h-2.8v-10c0-2.4-1.2-3.2-3.5-3.2
		c-2.2,0-3.5,1.5-3.5,3.5v8.9c0,1.9,0.4,3.6,1.2,5.6l6.6,12.5c1.4,2.7,2.4,5.6,2.4,8.7v10.9c0,3.7-1.9,5.9-6.8,5.9
		c-4.9,0-6.8-2.2-6.8-6.2v-10.3h2.8V137.2z"/>
</g>
<g>
	<g>
		<g>
			<path id="SVGID_1_" class="st2" d="M121.3,141.2c-2.7,0-4.9-2.2-4.9-4.9c0-2.7,2.2-4.9,4.9-4.9s4.9,2.2,4.9,4.9
				C126.2,138.9,124,141.2,121.3,141.2z M125.4,129.2v-25.9c-0.1-3.2-1.4-6.1-3.8-8.4s-5.3-3.7-8.4-3.8H109v-8.2L96.7,95.3
				l12.4,12.4v-8.2h4.1c1.1,0.1,2,0.5,2.8,1.2c0.9,0.9,1.2,1.7,1.2,2.8v25.9c-2.5,1.4-4.1,4.1-4.1,7.1c0,4.6,3.7,8.2,8.2,8.2
				s8.2-3.7,8.2-8.2C129.6,133.3,127.8,130.5,125.4,129.2z"/>
		</g>
	</g>
</g>
</svg>
