<?xml version="1.0" encoding="utf-8"?>
<!-- Generator: Adobe Illustrator 20.1.0, SVG Export Plug-In . SVG Version: 6.00 Build 0)  -->
<svg version="1.1" id="Layer_1" xmlns="http://www.w3.org/2000/svg" xmlns:xlink="http://www.w3.org/1999/xlink" x="0px" y="0px"
	 viewBox="0 0 267.8 151.1" style="enable-background:new 0 0 267.8 151.1;" xml:space="preserve">
<style type="text/css">
	.st0{fill:#626C8E;}
	.st1{fill:#515978;}
	.st2{clip-path:url(#SVGID_4_);}
	.st3{clip-path:url(#SVGID_6_);fill:#515978;}
</style>
<g>
	<path class="st0" d="M5,12.7c0-4,2.6-6.2,6.8-6.2s6.5,2.2,6.5,6.2v9.5H15v-9c0-2.3-0.7-4.3-3.3-4.3c-2.2,0-3.6,1.4-3.6,3.6v46.4
		c0,2.2,1.4,3.6,3.6,3.6c2.6,0,3.3-1.4,3.3-4.3v-9.8h3.2v10.3c0,4-2.2,6.2-6.5,6.2c-4.2,0-6.8-2.2-6.8-6.2L5,12.7L5,12.7z"/>
	<path class="st0" d="M41.2,58.6c0,4-2.5,6.2-7,6.2s-7-2.2-7-6.2V12.7c0-4,2.6-6.2,7-6.2s7,2.2,7,6.2V58.6z M38,12.8
		c0-2.6-1.4-3.9-3.8-3.9c-2.3,0-3.8,1.4-3.8,3.9v45.8c0,2.6,1.5,3.9,3.8,3.9s3.8-1.4,3.8-3.9V12.8z"/>
	<path class="st0" d="M51.3,6.8h4.8l5.4,37.3c0.6,4.6,1.6,11.1,2.6,18.1h0.2c-0.4-8-0.8-15.4-0.8-18.6V6.8h3.2v57.8h-4.8l-5.6-36.8
		c-0.5-3.1-1.4-11-2.2-18.6h-0.2c0.2,7.5,0.6,14.9,0.6,16.8v38.6h-3.2C51.3,64.6,51.3,6.8,51.3,6.8z"/>
	<path class="st0" d="M79.3,9.2h-5.7V6.8h14.6v2.4h-5.7v55.4h-3.2C79.3,64.6,79.3,9.2,79.3,9.2z"/>
	<path class="st0" d="M95,6.8h7.2c3.8,0,6.6,1.8,6.6,5.4v17c0,3.1-0.9,5.4-5,5.7V35c2.9,0.2,5,1.7,5,5.2v24.3h-3.2V40.2
		c0-2.2-1.2-4.2-4.4-4.2h-3v28.5H95V6.8z M101.4,33.7c2.7,0,4.2-1.3,4.2-3.8v-17c0-2.5-1.4-3.6-3.9-3.6h-3.4v24.5h3.1V33.7z"/>
	<path class="st0" d="M119.4,6.8h3.2v57.8h-3.2V6.8z"/>
	<path class="st0" d="M132.9,6.8h6.9c4,0,6.7,1.8,6.7,6.2v16.8c0,3.3-2.5,4.7-5,4.9v0.2c3,0.2,5.4,1.2,5.4,5.4v18.2
		c0,4.3-2.6,6.2-6.2,6.2h-7.8L132.9,6.8L132.9,6.8z M139.5,33.7c3,0,3.8-2.1,3.8-4.1V12.8c0-2.6-0.8-3.6-3.9-3.6h-3.3v24.5H139.5z
		 M136.1,36.1v26.1h3.3c3.2,0,4.3-1.1,4.3-3.5V40.2c0-2.9-1.4-4.2-4.2-4.2L136.1,36.1L136.1,36.1z"/>
	<path class="st0" d="M171,6.8v51.8c0,4-2.5,6.2-7,6.2s-7-2.2-7-6.2V6.8h3.2v51.8c0,2.6,1.5,3.9,3.8,3.9s3.8-1.4,3.8-3.9V6.8H171z"
		/>
	<path class="st0" d="M183.5,9.2h-5.7V6.8h14.6v2.4h-5.7v55.4h-3.2L183.5,9.2L183.5,9.2z"/>
	<path class="st0" d="M213.3,58.6c0,4-2.5,6.2-7,6.2s-7-2.2-7-6.2V12.7c0-4,2.6-6.2,7-6.2c4.5,0,7,2.2,7,6.2V58.6z M210.1,12.8
		c0-2.6-1.4-3.9-3.8-3.9s-3.8,1.4-3.8,3.9v45.8c0,2.6,1.5,3.9,3.8,3.9s3.8-1.4,3.8-3.9V12.8z"/>
	<path class="st0" d="M223.3,6.8h7.2c3.8,0,6.6,1.8,6.6,5.4v17c0,3.1-0.9,5.4-5,5.7V35c2.9,0.2,5,1.7,5,5.2v24.3h-3.2V40.2
		c0-2.2-1.2-4.2-4.4-4.2h-3v28.5h-3.2L223.3,6.8L223.3,6.8z M229.7,33.7c2.7,0,4.2-1.3,4.2-3.8v-17c0-2.5-1.4-3.6-3.9-3.6h-3.4v24.5
		h3.1V33.7z"/>
	<path class="st0" d="M6.1,86.8h6.8c4.7,0,7.2,1.8,7.2,6.2v45.4c0,4.3-2.5,6.2-7.2,6.2H6.1V86.8z M12.6,142.2c2.9,0,4.3-1,4.3-3.5
		v-46c0-2.5-1.4-3.5-4.3-3.5H9.3v53H12.6z"/>
	<path class="st0" d="M39.4,127.7h-7.9l-1.8,16.9h-2.9l6.5-57.8h4.5l6.6,57.8h-3.2L39.4,127.7z M39.2,125.3l-2-19
		c-0.6-5.8-1.4-11.6-1.6-17.4h-0.2c-0.6,5.8-0.9,11.7-1.5,17.4l-2.1,19H39.2z"/>
	<path class="st0" d="M61,86.8h3.2l-6.6,35v22.8h-3.2v-22.8l-6.6-35H51l5,31.3h0.2L61,86.8z"/>
	<path class="st0" d="M73.4,139c0,1.9,0.7,3.5,3.7,3.5c2.7,0,3.9-1,3.9-3.7v-9.9c0-3-0.6-4.8-1.7-7.4l-6.7-12.7
		c-1.4-2.6-2.1-5.6-2.1-7.8v-8.4c0-3.8,2.6-6,6.6-6c4.3,0,6.6,1.6,6.6,5.4v10.3h-2.9v-10c0-2.3-1.2-3.3-3.4-3.3
		c-2.2,0-3.4,1.5-3.4,3.4v9c0,1.9,0.4,3.6,1.3,5.5l6.6,12.6c1.4,2.7,2.4,5.5,2.4,8.7V139c0,3.7-1.8,5.9-6.9,5.9
		c-5,0-6.8-2.2-6.8-6.2v-10.2h2.9L73.4,139L73.4,139z"/>
</g>
<g>
	<g>
		<g>
			<path id="SVGID_1_" class="st1" d="M108.6,109.9c-1,0-1.8-0.8-1.8-1.8s0.8-1.8,1.8-1.8s1.8,0.8,1.8,1.8S109.6,109.9,108.6,109.9z
				 M110.4,123.4c0,1-0.8,1.8-1.8,1.8s-1.8-0.8-1.8-1.8s0.8-1.8,1.8-1.8S110.4,122.4,110.4,123.4z M111.6,108.1
				c0-1.7-1.4-3.1-3.1-3.1s-3.1,1.4-3.1,3.1c0,1.1,0.6,2.1,1.5,2.6v10.1c-0.9,0.5-1.5,1.5-1.5,2.6c0,1.7,1.4,3.1,3.1,3.1
				s3.1-1.4,3.1-3.1c0-1.1-0.6-2.1-1.5-2.6v-10.1C111,110.2,111.6,109.2,111.6,108.1z M120.8,125.3c-1,0-1.8-0.8-1.8-1.8
				s0.8-1.8,1.8-1.8s1.8,0.8,1.8,1.8C122.7,124.4,121.8,125.3,120.8,125.3z M122.4,120.8v-9.6c0-1.2-0.5-2.3-1.4-3.2s-2-1.4-3.2-1.4
				h-1.5v-3.1l-4.6,4.6l4.6,4.6v-3.1h1.5c0.4,0,0.7,0.2,1.1,0.5c0.3,0.3,0.5,0.6,0.5,1.1v9.6c-0.9,0.5-1.5,1.5-1.5,2.6
				c0,1.7,1.4,3.1,3.1,3.1s3.1-1.4,3.1-3.1C123.9,122.3,123.3,121.3,122.4,120.8z"/>
		</g>
		<g>
			<defs>
				<path id="SVGID_2_" d="M108.6,109.9c-1,0-1.8-0.8-1.8-1.8s0.8-1.8,1.8-1.8s1.8,0.8,1.8,1.8S109.6,109.9,108.6,109.9z
					 M110.4,123.4c0,1-0.8,1.8-1.8,1.8s-1.8-0.8-1.8-1.8s0.8-1.8,1.8-1.8S110.4,122.4,110.4,123.4z M111.6,108.1
					c0-1.7-1.4-3.1-3.1-3.1s-3.1,1.4-3.1,3.1c0,1.1,0.6,2.1,1.5,2.6v10.1c-0.9,0.5-1.5,1.5-1.5,2.6c0,1.7,1.4,3.1,3.1,3.1
					s3.1-1.4,3.1-3.1c0-1.1-0.6-2.1-1.5-2.6v-10.1C111,110.2,111.6,109.2,111.6,108.1z M120.8,125.3c-1,0-1.8-0.8-1.8-1.8
					s0.8-1.8,1.8-1.8s1.8,0.8,1.8,1.8C122.7,124.4,121.8,125.3,120.8,125.3z M122.4,120.8v-9.6c0-1.2-0.5-2.3-1.4-3.2
					s-2-1.4-3.2-1.4h-1.5v-3.1l-4.6,4.6l4.6,4.6v-3.1h1.5c0.4,0,0.7,0.2,1.1,0.5c0.3,0.3,0.5,0.6,0.5,1.1v9.6
					c-0.9,0.5-1.5,1.5-1.5,2.6c0,1.7,1.4,3.1,3.1,3.1s3.1-1.4,3.1-3.1C123.9,122.3,123.3,121.3,122.4,120.8z"/>
			</defs>
			<clipPath id="SVGID_4_">
				<use xlink:href="#SVGID_2_"  style="overflow:visible;"/>
			</clipPath>
			<g class="st2">
				<g>
					<rect id="SVGID_3_" x="105.5" y="103.5" class="st1" width="18.4" height="24.5"/>
				</g>
				<g>
					<defs>
						<rect id="SVGID_5_" x="105.5" y="103.5" width="18.4" height="24.5"/>
					</defs>
					<clipPath id="SVGID_6_">
						<use xlink:href="#SVGID_5_"  style="overflow:visible;"/>
					</clipPath>
					<rect x="97.9" y="95.8" class="st3" width="33.7" height="38.3"/>
				</g>
			</g>
			<g class="st2">
				<g>
					<path class="st1" d="M186.3,125.9H170c-2,0-2.8-1.4-1.7-3.1l7.1-11.3v-5.7h-0.9c-0.5,0-0.9-0.4-0.9-0.9s0.4-0.9,0.9-0.9h7.3
						c0.5,0,0.9,0.4,0.9,0.9s-0.4,0.9-0.9,0.9h-0.9v5.7l7.1,11.3C189.1,124.5,188.3,125.9,186.3,125.9z M173.1,118.6h10.1l-3.9-6.1
						l-0.3-0.4v-0.5v-5.7h-1.8v5.7v0.5l-0.3,0.4L173.1,118.6z"/>
				</g>
			</g>
			<g class="st2">
				<path class="st1" d="M156.4,124.6l-8.8,8.5c-0.2,0.2-0.4,0.3-0.6,0.3s-0.5-0.1-0.6-0.3l-8.9-8.5c-0.1-0.1-3.2-3-3.2-6.4
					c0-4.2,2.5-6.6,6.8-6.6c2.5,0,4.8,2,5.9,3.1c1.1-1.1,3.4-3.1,5.9-3.1c4.2,0,6.8,2.5,6.8,6.6
					C159.6,121.6,156.5,124.4,156.4,124.6z M152.8,113.4c-2.1,0-4.5,2.3-5.2,3.2c-0.3,0.4-1.1,0.4-1.4,0c-0.7-0.9-3.1-3.2-5.2-3.2
					c-2.3,0-5,0.8-5,4.8c0,2.6,2.6,5,2.7,5l8.2,7.9l8.2-7.9c0,0,2.7-2.5,2.7-5.1C157.8,114.2,155.1,113.4,152.8,113.4z"/>
			</g>
			<g class="st2">
				<path class="st0" d="M219,119.8c-1,1.1-2.3,2.6-2.4,4.1c0.4,0.2,0.7,0.7,0.7,1.2c0,0.3-0.1,0.7-0.4,0.9c0.2,0.2,0.4,0.6,0.4,0.9
					c0,0.5-0.2,0.9-0.6,1.1c0.1,0.2,0.2,0.4,0.2,0.7c0,0.9-0.7,1.4-1.5,1.4c-0.4,0.8-1.2,1.4-2.1,1.4s-1.7-0.5-2.1-1.4
					c-0.8,0-1.5-0.4-1.5-1.4c0-0.2,0.1-0.5,0.2-0.7c-0.4-0.3-0.6-0.7-0.6-1.1c0-0.3,0.1-0.7,0.4-0.9c-0.2-0.2-0.4-0.6-0.4-0.9
					c0-0.5,0.3-0.9,0.7-1.2c-0.1-1.5-1.4-3-2.4-4.1s-1.5-2.3-1.5-3.8c0-3.9,3.7-6.4,7.3-6.4s7.3,2.5,7.3,6.4
					C220.5,117.5,220,118.7,219,119.8z M213.2,111.5c-2.6,0-5.4,1.7-5.4,4.5c0,0.9,0.4,1.9,1,2.6c0.3,0.3,0.6,0.6,0.9,0.9
					c1,1.2,1.9,2.6,2,4.2h3.2c0.1-1.6,1-3,2-4.2c0.3-0.3,0.6-0.6,0.9-0.9c0.6-0.7,1-1.6,1-2.6C218.6,113.2,215.8,111.5,213.2,111.5z
					 M215.9,116.4c-0.2,0-0.5-0.2-0.5-0.5c0-1-1.5-1.4-2.3-1.4c-0.2,0-0.5-0.2-0.5-0.5s0.2-0.5,0.5-0.5c1.3,0,3.2,0.7,3.2,2.3
					C216.4,116.2,216.2,116.4,215.9,116.4z"/>
			</g>
			<g class="st2">
				<path class="st1" d="M256,123.2c0,2-1.6,3.6-3.6,3.6h-18.2c-2,0-3.6-1.6-3.6-3.6H256z M251.4,117.7h-0.9v0.5
					c0,1.7-1.4,3.2-3.2,3.2h-10c-1.7,0-3.2-1.4-3.2-3.2v-10.4c0-0.5,0.4-0.9,0.9-0.9h16.3c3,0,5.4,2.4,5.4,5.4
					S254.4,117.7,251.4,117.7z M251.4,109.5h-0.9v5.4h0.9c1.5,0,2.7-1.2,2.7-2.7S252.9,109.5,251.4,109.5z"/>
			</g>
		</g>
	</g>
</g>
</svg>
