<svg id="Layer_1" data-name="Layer 1" xmlns="http://www.w3.org/2000/svg" viewBox="0 0 117.14 81.23"><defs><style>.cls-1{fill:#ea168c;}.cls-2{fill:#e90c8b;}.cls-3{fill:#512c84;}.cls-4{fill:#e30b8b;}.cls-5{fill:#e9108c;}.cls-6{fill:#d3128a;}.cls-7{fill:#c7148a;}.cls-8{fill:#bc198a;}.cls-9{fill:#ca128a;}.cls-10{fill:#d91089;}.cls-11{fill:#dd0d8a;}.cls-12{fill:#d6128a;}.cls-13{fill:#ca148a;}.cls-14{fill:#c1168a;}.cls-15{fill:#d0128a;}.cls-16{fill:#d7108a;}.cls-17{fill:#bb1a8a;}.cls-18{fill:#512c85;}.cls-19{fill:#a8218b;}.cls-20{fill:#a7218b;}.cls-21{fill:#e10d8a;}.cls-22{fill:#762a88;}.cls-23{fill:#89288a;}.cls-24{fill:#b71c8a;}.cls-25{fill:#ae208b;}.cls-26{fill:#a3238b;}.cls-27{fill:#bf178a;}.cls-28{fill:#ce148a;}.cls-29{fill:#a4228b;}.cls-30{fill:#8f278a;}.cls-31{fill:#ad1e8b;}.cls-32{fill:#b81c8a;}.cls-33{fill:#812989;}.cls-34{fill:#722b87;}.cls-35{fill:#c3168a;}.cls-36{fill:#cf148a;}.cls-37{fill:#962589;}.cls-38{fill:#a0238b;}.cls-39{fill:#cf138b;}.cls-40{fill:#9f238b;}.cls-41{fill:#b21d8a;}.cls-42{fill:#bc198b;}.cls-43{fill:#cb148a;}.cls-44{fill:#612c87;}.cls-45{fill:#7c2b88;}.cls-46{fill:#c8148a;}.cls-47{fill:#7b2b88;}.cls-48{fill:#c6148a;}.cls-49{fill:#692c87;}.cls-50{fill:#93278a;}.cls-51{fill:#9b248c;}.cls-52{fill:#ae1e8b;}.cls-53{fill:#572d87;}.cls-54{fill:#7f2a89;}.cls-55{fill:#852889;}.cls-56{fill:#b81c8b;}.cls-57{fill:#a4228c;}.cls-58{fill:#8a288a;}.cls-59{fill:#c2168b;}.cls-60{fill:#b31d8b;}.cls-61{fill:#c1178b;}.cls-62{fill:#6e2b88;}.cls-63{fill:#7c2b89;}.cls-64{fill:#532d85;}.cls-65{fill:#842989;}.cls-66{fill:#802989;}.cls-67{fill:#852989;}.cls-68{fill:#5d2d87;}.cls-69{fill:#732b87;}.cls-70{fill:#93278b;}.cls-71{fill:#c2178b;}.cls-72{fill:#90278b;}.cls-73{fill:#6e2c88;}.cls-74{fill:#96258b;}.cls-75{fill:#95268b;}.cls-76{fill:#762c88;}.cls-77{fill:#8f278b;}.cls-78{fill:#90288b;}.cls-79{fill:#c7178b;}.cls-80{fill:#662d87;}.cls-81{fill:#b41d8b;}.cls-82{fill:#be1b8c;}.cls-83{fill:#c6168a;}.cls-84{fill:#9d298c;}.cls-85{fill:#63388d;}.cls-86{fill:#612c86;}.cls-87{fill:#6e2b87;}.cls-88{fill:#5c2d86;}.cls-89{fill:#582d86;}.cls-90{fill:#552d86;}.cls-91{fill:#652c86;}.cls-92{fill:#8b288a;}.cls-93{fill:#8e278a;}.cls-94{fill:#c5178a;}.cls-95{fill:#e20d8b;}.cls-96{fill:#dd118b;}.cls-97{fill:#c9178a;}.cls-98{fill:#91278a;}.cls-99{fill:#95258a;}.cls-100{fill:#d0138a;}.cls-101{fill:#d8138b;}.cls-102{fill:#a9208b;}.cls-103{fill:#b11d8b;}.cls-104{fill:#b51c8a;}.cls-105{fill:#fcfcfc;}.cls-106{fill:#ea158c;}.cls-107{fill:#f5655f;fill-rule:evenodd;}</style></defs><title>rx-day-logo</title><path class="cls-1" d="M40.26,73.52a34.43,34.43,0,0,1-11.57-2.4c-10.08-4-17.47-10.75-21.74-20.8-.1-.24-.17-.48-.25-.73s-.07-.6-.24-.86a.85.85,0,0,1,0-.65c.41-.27.64.1.89.28,2.5,1.83,4.95,3.73,7.42,5.6L33.53,68.16c1.93,1.46,3.87,2.9,5.79,4.37C39.68,72.8,40.11,73,40.26,73.52Z"/><path class="cls-1" d="M5.69,47.47a20.53,20.53,0,0,1-3.21-4.08,3.68,3.68,0,0,1,.22-4.62c1.33-1.58,1.25-3.41.67-5.27-.38-1.23-.81-2.45-1.1-3.71a4.62,4.62,0,0,1,1.09-4.32A15.34,15.34,0,0,1,6,23,5.23,5.23,0,0,0,8.09,18.5a30.34,30.34,0,0,1,.12-3.38,4.57,4.57,0,0,1,3.13-3.89,9.7,9.7,0,0,1,3.15-.67,7.7,7.7,0,0,0,5.69-3c.57-.65,1.17-1.29,1.71-2a7,7,0,0,1,6.72-2.56,9.92,9.92,0,0,1,6.17,3.06c-.32.33-.78.12-1.14.29s-.94,0-1.4.14-.84,0-1.25.17-1,.15-1.43.26-1.14.24-1.7.41a14.88,14.88,0,0,0-1.82.56c-.61.22-1.23.43-1.82.7a18.9,18.9,0,0,0-2.11,1,21.06,21.06,0,0,0-2.23,1.27c-.63.4-1.26.8-1.86,1.24s-1,.74-1.42,1.12-1,.86-1.51,1.28-1,1-1.55,1.55c-.39.33-.63.79-1,1.14-.6.67-1.12,1.39-1.66,2.1s-.83,1.23-1.24,1.85a21.1,21.1,0,0,0-1.16,2.07c-.35.68-.71,1.36-1,2.07A37.58,37.58,0,0,0,4.73,35.56a25.5,25.5,0,0,0,.84,10.51C5.7,46.52,6,47,5.69,47.47Z"/><path class="cls-2" d="M46.19,73.26a19.48,19.48,0,0,1-4.37.27c-1.62-1.08-3.15-2.3-4.7-3.47L26.32,61.89c-6.34-4.81-12.71-9.59-19-14.43a5.18,5.18,0,0,1-1.06-.81,12,12,0,0,1-.1-3.5c.26-.51.56-.17.79,0,1.84,1.42,3.72,2.79,5.57,4.2,3.64,2.78,7.31,5.52,11,8.29q11.11,8.43,22.25,16.83C45.93,72.66,46.37,72.77,46.19,73.26Z"/><path class="cls-3" d="M6.3,42.95a17.54,17.54,0,0,0,.12,3.8A1.53,1.53,0,0,1,6.55,48v.7c.07.14.12.28-.13.29a10.94,10.94,0,0,0-.75-1.53A17.29,17.29,0,0,0,5,44.69a29.09,29.09,0,0,1,.49-14.11,29.53,29.53,0,0,1,1.9-5.42c.53.08.46.51.49.86a39.68,39.68,0,0,0,1,6.32,1.55,1.55,0,0,1-.18.74c-.12.24-.24.48-.36.72a3.66,3.66,0,0,0-.26.64,13.84,13.84,0,0,0-.65,1.94c-.11.41-.26.81-.33,1.23A12.34,12.34,0,0,0,6.85,39c-.09.56-.19,1.13-.24,1.7a12.16,12.16,0,0,0-.14,1.65A.8.8,0,0,1,6.3,42.95Z"/><path class="cls-4" d="M6.3,42.95v-.58c.06-.1,0-.28.18-.32a1.88,1.88,0,0,1,1,.52q8.2,6.17,16.37,12.38c.28.21.61.35.9.55.65.75,1.24,1.56,2,2.25A20.28,20.28,0,0,0,33,62c.54,0,.79.41,1.16.65s.44.34.66.52a28.85,28.85,0,0,0,4.89,3.12,1.93,1.93,0,0,1,.77.59,3.66,3.66,0,0,0,1.08,1c1.93,1.48,3.91,2.9,5.82,4.42.22.18.66.27.47.73a4.71,4.71,0,0,1-1.69.27c-.23-.62-.85-.83-1.32-1.19-4.33-3.3-8.68-6.56-13-9.83l-7.27-5.49L10.9,46.38C9.38,45.22,7.83,44.09,6.3,42.95Z"/><path class="cls-5" d="M6.55,48a2.8,2.8,0,0,1-.14-1.27A13.16,13.16,0,0,1,9,48.6q5.09,3.79,10.14,7.63L33.92,67.41c2.42,1.83,4.86,3.65,7.27,5.49.23.18.54.29.63.63H40.26L26.87,63.33q-4.69-3.56-9.4-7.1L7.24,48.5C7,48.33,6.78,48.18,6.55,48Z"/><path class="cls-6" d="M53.25,11.6a31.45,31.45,0,0,1,6.18,4.85A10.76,10.76,0,0,1,56,30.63c-.51.34-.95.9-1.68.61a3,3,0,0,1-1.26-.13c0-.42.33-.46.58-.58a9.33,9.33,0,0,0,5.8-7.58,8.94,8.94,0,0,0-7.15-10.19,9.12,9.12,0,0,0-10.77,8.86,9.27,9.27,0,0,0,2.26,6.55c.19.21.44.45.25.8a6.2,6.2,0,0,1-1.56-.54,9.26,9.26,0,0,1-2.14-5,10.71,10.71,0,0,1,9.45-12.14A14.38,14.38,0,0,1,53.25,11.6Z"/><path class="cls-2" d="M40.4,66.92c-1.22-.9-2.66-1.41-3.86-2.34-.58-.45-1.19-.88-1.78-1.32a24.76,24.76,0,0,0-1.83-2.83c-1.53-2.23-3-4.47-4.58-6.68a1.93,1.93,0,0,0-.22-.36h0c-.15-.27,0-.58-.11-.85-.05-.49.22-.15.27-.08A15.69,15.69,0,0,0,30.78,55a48.27,48.27,0,0,0,6,4.73c0,.24.14.39.26.56q2,3,4.1,6c.19.27.65.6.13,1A1,1,0,0,1,40.4,66.92Z"/><path class="cls-7" d="M39.55,27.31a9.44,9.44,0,0,1-1.83-.75,8.84,8.84,0,0,1-.74-3A14.25,14.25,0,0,1,40.8,12.2a13.45,13.45,0,0,1,5.83-3.68.77.77,0,0,1,.68,0,8.72,8.72,0,0,1,1.85.81c0,.53-.42.5-.73.57a12.08,12.08,0,0,0-4,1.6,12.59,12.59,0,0,0-5.74,9.34,12.77,12.77,0,0,0,.71,5.46C39.54,26.63,39.79,26.95,39.55,27.31Z"/><path class="cls-8" d="M36.29,25.93l-1-.36c-.23-.06-.48-.1-.56-.38a15.36,15.36,0,0,1,0-6.32,2.65,2.65,0,0,0,.07-.9,1.75,1.75,0,0,1,.31-1,10.35,10.35,0,0,0,1-2.42,17,17,0,0,1,6.5-7c.27-.16.51-.43.88-.29a6.57,6.57,0,0,1,1.85.56.87.87,0,0,1-.56.58A15.11,15.11,0,0,0,37.92,15a14.47,14.47,0,0,0-1.7,6.4A14.55,14.55,0,0,0,36.46,25C36.53,25.29,36.69,25.68,36.29,25.93Z"/><path class="cls-9" d="M7.28,36.31a8.17,8.17,0,0,1,.7-2c.27-.09.45.09.63.23,4.07,3.1,8.16,6.16,12.23,9.26l.1.1,0,1c.14.28,0,.58.09.86l0,.57c-.49.1-.77-.27-1.09-.51q-5.81-4.36-11.6-8.76A8.32,8.32,0,0,0,7.28,36.31Z"/><path class="cls-10" d="M50.53,30.68a21,21,0,0,1-4.07-1,8.3,8.3,0,0,1-4.12-5,8.7,8.7,0,0,1,1.43-8.26,8.15,8.15,0,0,1,7.89-3.39,8.23,8.23,0,0,1,7.18,6.28,8.93,8.93,0,0,1-8.25,11.36S50.55,30.69,50.53,30.68Z"/><path class="cls-11" d="M6.44,40.68A6.57,6.57,0,0,1,6.7,39c.42-.22.66.11.92.31q5.46,4.1,10.9,8.23c1.14.87,2.31,1.68,3.42,2.6l1.15,2.67c-.44.22-.71-.15-1-.35q-2.8-2.09-5.58-4.19c-3-2.32-6.12-4.61-9.16-6.94C7.06,41.1,6.75,40.9,6.44,40.68Z"/><path class="cls-12" d="M44.07,29c-.14-.58-.64-.9-1-1.36a9.39,9.39,0,0,1-1.74-5.46,9.2,9.2,0,0,1,2-6.14,8.9,8.9,0,0,1,6.87-3.56,8.77,8.77,0,0,1,7.14,3,8.93,8.93,0,0,1,2.34,5.73,9.23,9.23,0,0,1-1.24,5.39,9.86,9.86,0,0,1-4.82,4.21c-.21.09-.47.09-.56.36a6.24,6.24,0,0,1-1.84-.29,2.53,2.53,0,0,1,1.11-.4,8.91,8.91,0,0,0,5-14,8.21,8.21,0,0,0-11.7-1.7,9,9,0,0,0-.93,13.72c.29.29.87.37.78,1A4.79,4.79,0,0,1,44.07,29Z"/><path class="cls-13" d="M39.55,27.31c-.28-1-.61-2-.84-3a11.37,11.37,0,0,1,.81-7.25,12.17,12.17,0,0,1,8.6-7.3c.36-.09.82,0,1-.45l2,1c-.07.37-.39.28-.62.32a18.34,18.34,0,0,0-3.31.66,11.39,11.39,0,0,0-7.46,10.39,12.45,12.45,0,0,0,1.13,5.19c.13.29.37.58.1.91A5,5,0,0,1,39.55,27.31Z"/><path class="cls-14" d="M36.29,25.93a4.21,4.21,0,0,0-.15-1.86,15.77,15.77,0,0,1,1.07-8,13.51,13.51,0,0,1,2.42-3.92,14.82,14.82,0,0,1,4.89-3.79c.31-.14.54-.35.83-.51a7.91,7.91,0,0,1,2,.72,14.06,14.06,0,0,0-5,2.55,13.08,13.08,0,0,0-3.45,4.18,14.49,14.49,0,0,0-1.7,5.51A12.8,12.8,0,0,0,37.69,26a2.28,2.28,0,0,1,0,.56Z"/><path class="cls-15" d="M7.28,36.31c.26-.15.44,0,.63.16l8.5,6.41c1.27,1,2.51,1.94,3.78,2.9.28.21.59.37.89.56l.4,2.11a1.69,1.69,0,0,1-.91-.49c-4.42-3.31-8.81-6.67-13.23-10A1.11,1.11,0,0,1,7,37.57,5.41,5.41,0,0,1,7.28,36.31Z"/><path class="cls-16" d="M7,37.57a16.11,16.11,0,0,1,2.66,1.89c3.73,2.8,7.43,5.62,11.15,8.44.24.18.55.27.72.54l.44,1.7a8.53,8.53,0,0,1-2.3-1.56c-2.86-2.11-5.68-4.26-8.51-6.4q-1.87-1.42-3.73-2.85A1.34,1.34,0,0,0,6.7,39,4.31,4.31,0,0,1,7,37.57Z"/><path class="cls-17" d="M21.23,39.87a3.91,3.91,0,0,1-.16,1.24c-.32.11-.54-.1-.76-.27q-5.57-4.22-11.14-8.43A.56.56,0,0,1,9,32.24c-.09-.51.34-.79.53-1.18a.74.74,0,0,1,.41-.3,4.33,4.33,0,0,1,1.4.92c3.11,2.37,6.25,4.72,9.37,7.09C21.12,39.05,21.45,39.33,21.23,39.87Z"/><path class="cls-18" d="M67.06,30a20,20,0,0,0-.69-6.55,7.43,7.43,0,0,0-.75-1.82c2.65,2,4.74,7.21,4.09,12.48-.25.39-.48.18-.65,0-.69-.94-1.33-1.92-2-2.91A1.47,1.47,0,0,1,67.06,30Z"/><path class="cls-19" d="M63.65,65.22a8.82,8.82,0,0,1-1.51,1.28,3.43,3.43,0,0,0-1.34.27c-.34.19-.56-.1-.75-.35-.51-.67-1-1.38-1.45-2.08-1.49-2.2-3-4.38-4.48-6.57-.17-.24-.41-.47-.32-.82l1.53-.63c.31.12.42.43.59.67,1.83,2.67,3.65,5.36,5.49,8,.51.74.52.73,1.31.22C63,65,63.35,64.83,63.65,65.22Z"/><path class="cls-11" d="M41.25,62.14l1.84.72a1.56,1.56,0,0,1,.57.6c1,1.56,2.09,3,3.11,4.59a2.85,2.85,0,0,1,.53,1.06c.05.3.3.46.53.63.83.61,1.63,1.25,2.45,1.88.23.18.61.34.42.77L49,72.81c-1.77-1.24-3.45-2.62-5.19-3.9-.22-.16-.46-.35-.35-.69a.27.27,0,0,1,.17-.09c.5.07,1,.29,1.58.36a9.3,9.3,0,0,0-1-1.61c-.9-1.23-1.68-2.55-2.59-3.78C41.41,62.82,41.15,62.54,41.25,62.14Z"/><path class="cls-20" d="M22.64,35.06l-.46,1.1c-.35.09-.58-.14-.82-.32-3.1-2.36-6.23-4.69-9.32-7.06a.83.83,0,0,1-.32-.37,1.81,1.81,0,0,1,.89-1.09,1,1,0,0,1,.77.29l8.76,6.64C22.4,34.45,22.83,34.58,22.64,35.06Z"/><path class="cls-21" d="M6.44,40.68c.34-.17.53.13.72.28Q14,46.13,20.9,51.33a8.71,8.71,0,0,0,2.18,1.48l1,1.69c-.43.24-.71-.1-1-.3q-2.38-1.75-4.73-3.54-5.6-4.25-11.22-8.47c-.22-.16-.44-.41-.72-.09l-.11.27A8.15,8.15,0,0,1,6.44,40.68Z"/><path class="cls-22" d="M62.11,43.78l1-1.57c.27-.11.39.1.5.27,1.85,2.66,3.64,5.36,5.49,8a1,1,0,0,1,.09.19,6.76,6.76,0,0,1-1.08,1.42c-.31.08-.42-.17-.53-.35-.64-1-1.39-1.93-2-3C64.38,47.14,63.2,45.49,62.11,43.78Z"/><path class="cls-23" d="M27.88,29l-1.25,1c-.34.16-.59,0-.83-.22-2.46-1.89-5-3.72-7.41-5.62-.22-.17-.46-.34-.48-.66a.37.37,0,0,1,.17-.25,4.34,4.34,0,0,1,1.28-.46A.93.93,0,0,1,20,23c2.57,2,5.14,3.93,7.74,5.85A.42.42,0,0,1,27.88,29Z"/><path class="cls-24" d="M21.23,39.87a.85.85,0,0,0-.4-.81c-2.68-2-5.33-4-8-6-1-.73-1.92-1.48-2.88-2.22a1,1,0,0,1,.45-1,.62.62,0,0,1,.29-.09c.43.11.68.48,1,.73,3.19,2.35,6.31,4.78,9.49,7.15a2.08,2.08,0,0,1,.42.37Z"/><path class="cls-25" d="M53.81,56.94l5.14,7.58c.43.64.89,1.25,1.31,1.89.2.31.47.36.69.15.41-.4.79-.24,1.19-.06a4.43,4.43,0,0,1-1.13.88c-.48-.39-1-.18-1.43,0a.45.45,0,0,1-.2,0,11.54,11.54,0,0,1-1.61-2.2q-2.4-3.5-4.78-7c-.16-.24-.41-.47-.31-.82Z"/><path class="cls-26" d="M22.64,35.06c0-.42-.39-.51-.63-.69Q17.62,31,13.2,27.67a1.05,1.05,0,0,0-.57-.24c-.09-.15,0-.25.08-.37.23-.24.43-.53.8-.59a1.11,1.11,0,0,1,.69.31c3,2.19,5.86,4.45,8.82,6.65a.93.93,0,0,1,.34.35Z"/><path class="cls-27" d="M9.07,32.22c1.39.86,2.64,1.91,3.94,2.88,2.42,1.81,4.81,3.67,7.22,5.5a9.55,9.55,0,0,0,.83.51,4.22,4.22,0,0,1-.11,1.3,6.49,6.49,0,0,1-1.44-1C15.95,38.71,12.4,36,8.8,33.32a.89.89,0,0,1-.25-.25l.25-.59C8.9,32.4,8.85,32.17,9.07,32.22Z"/><path class="cls-4" d="M43.65,68.19h-.14a3.21,3.21,0,0,1-2.26-1c.25-.26,0-.43-.12-.6Q39,63.44,36.81,60.3c-.13-.2-.34-.36-.05-.58l2.8,1.6c1.47,2.06,2.85,4.18,4.29,6.26C44,67.8,44.29,68.17,43.65,68.19Z"/><path class="cls-28" d="M54.35,31.24c.57.14.88-.31,1.29-.56a10.62,10.62,0,0,0,3.5-3.59,10.42,10.42,0,0,0,1.34-7,11.76,11.76,0,0,0-.93-3.07,1.69,1.69,0,0,1-.11-.62A8.43,8.43,0,0,1,61,18.09a10.44,10.44,0,0,1,.31,6.17,11.26,11.26,0,0,1-4.84,7.1A7,7,0,0,1,54.35,31.24Z"/><path class="cls-29" d="M62.83,65.37a3.47,3.47,0,0,0-.47.31c-.32.3-.55.23-.78-.12q-3-4.41-6-8.81a4.14,4.14,0,0,1-.23-.44l1.13-.56c1.33,1.72,2.47,3.57,3.7,5.36.82,1.19,1.66,2.38,2.45,3.59C62.76,64.9,63,65.06,62.83,65.37Z"/><path class="cls-30" d="M18,23.48a18.84,18.84,0,0,0,2.87,2.33c1.66,1.29,3.35,2.53,5,3.81a1.57,1.57,0,0,0,.75.36l-1,1c-.33.08-.52-.18-.73-.34-2.47-1.92-5-3.75-7.48-5.68a2,2,0,0,1-.72-.75.42.42,0,0,1,.17-.37C17.2,23.66,17.5,23.28,18,23.48Z"/><path class="cls-31" d="M11.78,28.42l9.42,7.09c.32.24.66.44,1,.66l-.35,1c-.29.12-.5-.07-.7-.21-3.35-2.55-6.76-5-10.06-7.65-.12-.33.17-.47.31-.69S11.56,28.34,11.78,28.42Z"/><path class="cls-16" d="M50.7,72.39c-.34-.82-1.23-1-1.78-1.62a3,3,0,0,0-.79-.57c-.7-.37-.91-1.08-1.29-1.69-1.11-1.76-2.3-3.45-3.46-5.18-.1-.15-.19-.32-.29-.48l2,.57c1.19,1.91,2.5,3.74,3.77,5.59a7.15,7.15,0,0,0,1.6,1.36c.4.32.83.62,1.23.93.21.17.49.31.44.66Z"/><path class="cls-19" d="M37.6,6.27l.84,0c.33.05.38.23.21.49a2,2,0,0,1-.4.4,20.71,20.71,0,0,0-4.55,5.94c-.14.27-.25.57-.61.61a.9.9,0,0,1-.31,0,6.15,6.15,0,0,0-.89-.24c-.14,0-.26-.1-.27-.28A26.44,26.44,0,0,1,35.72,7,1.66,1.66,0,0,1,37.6,6.27Z"/><path class="cls-32" d="M43.52,7.26A16.5,16.5,0,0,0,38,11.86a21.8,21.8,0,0,0-1.72,2.73c-.37.21-.68-.07-1-.11a.41.41,0,0,1-.31-.27,12,12,0,0,1,2.51-4,15.83,15.83,0,0,1,3.44-3.11c.23-.15.44-.38.76-.24A6.6,6.6,0,0,1,43.52,7.26Z"/><path class="cls-33" d="M29.6,27.88a2.94,2.94,0,0,1-.89.54c-.34.17-.58,0-.82-.22-2.26-1.67-4.44-3.43-6.72-5.07a1.56,1.56,0,0,1-.66-.8,23.45,23.45,0,0,1,.4-5.1.92.92,0,0,1,.38-.65c.62.08.43.65.61,1a27,27,0,0,0-.43,3.9c-.09.7.37.62.81.57a.7.7,0,0,1,.31.08,3,3,0,0,0,1.18,1.24q2.83,2.09,5.61,4.25A.61.61,0,0,1,29.6,27.88Z"/><path class="cls-34" d="M69.15,50.69a4.24,4.24,0,0,1-1-1.23q-2.34-3.39-4.65-6.8c-.12-.17-.19-.38-.42-.45l.76-1.38A28.55,28.55,0,0,1,66,43.93l0,.14A4.93,4.93,0,0,1,67,45.22c.93,1.47,2,2.82,2.89,4.35A6.18,6.18,0,0,1,69.15,50.69Z"/><path class="cls-35" d="M8.55,33.07a9.3,9.3,0,0,1,2.3,1.57c2.65,2,5.29,3.93,7.89,6A12.35,12.35,0,0,1,21,42.41l0,.68c-.42.28-.66-.09-.92-.28-2.61-1.92-5.16-3.93-7.77-5.85-1.17-.86-2.3-1.78-3.47-2.65-.2-.15-.45-.26-.54-.54A1.65,1.65,0,0,1,8.55,33.07Z"/><path class="cls-36" d="M53.25,11.6c-.43.43-.91.07-1.32,0a8.81,8.81,0,0,0-5.25.79,10.26,10.26,0,0,0-6.1,8,10.22,10.22,0,0,0,1.52,7.24c.15.26.41.46.42.79a1.17,1.17,0,0,1-.72-.23A8.44,8.44,0,0,1,40,23.79a10.94,10.94,0,0,1,2.92-9.55,10.23,10.23,0,0,1,7.23-3.36,5.11,5.11,0,0,1,2.29.18A2.45,2.45,0,0,1,53.25,11.6Z"/><path class="cls-37" d="M25,31.52l-.71.84c-.3.11-.49-.09-.69-.24-2.65-2-5.33-4-8-6-.27-.21-.62-.35-.72-.74s.41-.52.69-.71a.58.58,0,0,1,.4-.07c2.82,2.25,5.77,4.35,8.62,6.57A1.15,1.15,0,0,1,25,31.52Z"/><path class="cls-13" d="M55.79,70.45a4.4,4.4,0,0,1-1.55.73c-1-.63-1.94-1.29-2.89-2s-1.19-1.6-1.8-2.4c-.48-.63-.9-1.31-1.33-2-.16-.25-.43-.51-.24-.82s.51-.1.78-.14A.33.33,0,0,1,49,64h.56a29,29,0,0,1,1.83,2.57c.41.6.8,1.21,1.23,1.79a1.77,1.77,0,0,0,1.14.73A3.41,3.41,0,0,1,55.79,70.45Z"/><path class="cls-36" d="M49,64h-.21c-.24,0-.56-.13-.72.13s.14.47.27.66c.86,1.3,1.75,2.58,2.62,3.87a2.9,2.9,0,0,0,1.12.91,6.7,6.7,0,0,1,2.13,1.64,5.47,5.47,0,0,1-1.29.5,12.19,12.19,0,0,1-3.71-3.25c-.81-1.29-1.72-2.51-2.56-3.78-.18-.27-.48-.55-.22-.94Z"/><path class="cls-38" d="M62.83,65.37c-.82-1.22-1.63-2.44-2.45-3.65-1.25-1.84-2.5-3.67-3.74-5.51a1.91,1.91,0,0,1-.16-.46l.84-.43c.35.15.48.51.67.79.6.87,1.16,1.76,1.83,2.58,1.07,1.83,2.37,3.5,3.53,5.27.19.29.43.51.81.26a.38.38,0,0,1,.52,0,4.51,4.51,0,0,1-1,1A.71.71,0,0,0,62.83,65.37Z"/><path class="cls-5" d="M28.13,53.38a2.41,2.41,0,0,1,.77.8q1.74,2.59,3.49,5.17c.75,1.1,1.51,2.2,2.25,3.3.11.17.37.34.12.6L33,62a10.89,10.89,0,0,0-1.52-1.72,14,14,0,0,1-3.29-6A8,8,0,0,1,28.13,53.38Z"/><path class="cls-39" d="M52.39,11.07a11.86,11.86,0,0,0-6.8,1.29,10.71,10.71,0,0,0-4.65,5.17,11.4,11.4,0,0,0-1,4.7,11.06,11.06,0,0,0,1.59,5.46,5.22,5.22,0,0,1,.23.51,2.54,2.54,0,0,1-.83-.34,11.8,11.8,0,0,0-.8-2.16,11.28,11.28,0,0,1,1.89-10.85,11,11,0,0,1,7-4.17,17,17,0,0,0,2.06-.29A3.4,3.4,0,0,1,52.39,11.07Z"/><path class="cls-40" d="M23.35,33.78a18,18,0,0,1-2.67-1.9c-2.19-1.63-4.35-3.3-6.54-4.94a1.16,1.16,0,0,0-.67-.36.16.16,0,0,1-.05-.12s0-.07,0-.07a1.44,1.44,0,0,1,.75-.51,1,1,0,0,1,.78.27c3,2.28,6,4.48,8.92,6.77A2.57,2.57,0,0,1,23.35,33.78Z"/><path class="cls-41" d="M11.08,29.26a18.14,18.14,0,0,1,2.55,1.82c1.9,1.39,3.77,2.83,5.64,4.26a18,18,0,0,0,2.55,1.84l-.2.83a10,10,0,0,1-2.35-1.61c-2.62-1.94-5.22-3.92-7.82-5.89-.28-.21-.53-.45-.8-.68C10.59,29.48,10.81,29.35,11.08,29.26Z"/><path class="cls-42" d="M59.17,68.64a7.17,7.17,0,0,1-1.56.93c-.53-.45-1-1-1.84-.83-.33.06-.51-.27-.7-.52-.76-1-1.43-2.09-2.14-3.14-.36-.54-.71-1.06-1.48-1a.28.28,0,0,1-.23-.15l2.85-.25A15.57,15.57,0,0,1,55.79,66c.31.44.62.88.89,1.34a.9.9,0,0,0,1.25.5C58.53,67.61,59,68,59.17,68.64Z"/><path class="cls-43" d="M56.48,31.35c.09-.48.56-.62.86-.87a11.53,11.53,0,0,0,4.08-9.85c0-.86-.42-1.67-.41-2.55a5.74,5.74,0,0,1,1.24,1.59,12.89,12.89,0,0,1-2.45,9.62,14.45,14.45,0,0,1-1.15,1.24c-.2.2-.42.4-.29.73A5.8,5.8,0,0,1,56.48,31.35Z"/><path class="cls-44" d="M68.19,42.1l1.4-1.87a12.05,12.05,0,0,1,1.45,2,21.51,21.51,0,0,0,1.34,1.88,11,11,0,0,1-.91,2.42c-.32.11-.48-.14-.62-.33-.91-1.26-1.78-2.56-2.65-3.85A.22.22,0,0,1,68.19,42.1Z"/><path class="cls-45" d="M62.11,43.78a2.08,2.08,0,0,1,.43.36c1,1.52,2.08,3.06,3.12,4.58,0,.45-.23.75-.75.68l-.62.33c-.3.1-.43-.13-.57-.31-.91-1.17-1.64-2.46-2.52-3.66a.49.49,0,0,1-.06-.59Z"/><path class="cls-46" d="M58.36,31.26c-.66,0-.42-.31-.14-.56A11.75,11.75,0,0,0,62.14,22a6.59,6.59,0,0,1,.11-2.35A6.56,6.56,0,0,1,63.3,21.2,35.87,35.87,0,0,1,62.83,25a14.3,14.3,0,0,1-3,5.58,1.57,1.57,0,0,1-.82.62Z"/><path class="cls-47" d="M31.84,26.74l-1.45.69c-2-1.49-4-3-6-4.54-.23-.18-.64-.34-.31-.77a1.23,1.23,0,0,1,.54-.11c.31,0,.61,0,.92,0a3.36,3.36,0,0,1,1.17.3,1.53,1.53,0,0,0,.67.77L31.26,26C31.51,26.19,31.81,26.36,31.84,26.74Z"/><path class="cls-16" d="M45.48,29.41c-.48-.76-1.23-1.26-1.78-2A8.52,8.52,0,0,1,41.85,22a9,9,0,0,1,7.33-9,8.57,8.57,0,0,1,9.72,6.35,9.07,9.07,0,0,1-6.57,11.12c-.36.09-.68.34-1.07.28a1.13,1.13,0,0,1-.72-.14,14.54,14.54,0,0,0,3.69-1.06,8.55,8.55,0,0,0,4.66-6.69,8.26,8.26,0,0,0-4.06-8.6,7.66,7.66,0,0,0-7.34-.51,8.39,8.39,0,0,0-5.33,7,8.35,8.35,0,0,0,3,7.83c.42.35,1,.55,1.27,1.07A3.52,3.52,0,0,1,45.48,29.41Z"/><path class="cls-48" d="M59,31.21A12.83,12.83,0,0,0,63,22.16a1.18,1.18,0,0,1,.33-1,6.51,6.51,0,0,1,.8,1.57,2.84,2.84,0,0,1-.13,1.5,13.51,13.51,0,0,1-2.5,5.87,2.08,2.08,0,0,1-.62.65A6.18,6.18,0,0,1,59,31.21Z"/><path class="cls-6" d="M46.47,63.71c0,.44.28.74.49,1.06.77,1.17,1.61,2.3,2.35,3.49A10.23,10.23,0,0,0,52.19,71a3.59,3.59,0,0,1,.76.72l-.85.28a15.91,15.91,0,0,0-2.63-2.07,6.56,6.56,0,0,1-1.4-1.64c-1-1.33-1.84-2.71-2.76-4.06a1.07,1.07,0,0,1-.26-.77Z"/><path class="cls-48" d="M8.24,33.77c1.45.89,2.73,2,4.09,3,2.71,2,5.4,4.06,8.09,6.11a.76.76,0,0,0,.52.17v.85a8.62,8.62,0,0,1-2.3-1.56C15.79,40.27,13,38.12,10.15,36L8,34.34A.87.87,0,0,1,8.24,33.77Z"/><path class="cls-49" d="M68.19,42.1c1,1.16,1.7,2.49,2.61,3.7a2,2,0,0,0,.67.69,9.12,9.12,0,0,1-.93,1.95c-.3,0-.39-.22-.53-.4-1-1.33-1.83-2.78-2.85-4.11-.12-.16-.28-.34-.11-.56Z"/><path class="cls-4" d="M6.42,42.1c0-.33-.1-.75.48-.31q7.16,5.43,14.34,10.83l2.14,1.58a1.16,1.16,0,0,0,.7.3,3.23,3.23,0,0,1,.66,1,1.27,1.27,0,0,1-1-.41L12.39,46.5l-5-3.75C7.1,42.51,6.75,42.31,6.42,42.1Z"/><path class="cls-50" d="M25,31.52a16.83,16.83,0,0,1-2.62-1.85c-1.88-1.38-3.73-2.81-5.59-4.22a3.37,3.37,0,0,1-.83-.84c.08-.39.3-.57.7-.42L25.6,31Z"/><path class="cls-51" d="M23.88,32.93a7.64,7.64,0,0,1-2.23-1.49c-2.24-1.67-4.45-3.39-6.67-5.07-.23-.18-.47-.41-.81-.35-.07-.33.2-.46.39-.63s.29-.17.47-.07c1.4,1.09,2.79,2.19,4.19,3.27,1.56,1.2,3.12,2.38,4.69,3.56a3.22,3.22,0,0,0,.43.23C24.27,32.62,24,32.74,23.88,32.93Z"/><path class="cls-52" d="M33.07,13.61c.67-.38.76-1.14,1.11-1.72a22.48,22.48,0,0,1,4.1-5c.2-.18.54-.31.15-.62a6.3,6.3,0,0,1,1.69.24c.2.41-.16.54-.37.71a19.82,19.82,0,0,0-4.66,5.39c-.27.46-.37,1-.86,1.34a.74.74,0,0,1-.31,0,5.55,5.55,0,0,1-.71-.17C33.11,13.8,33,13.73,33.07,13.61Z"/><path class="cls-53" d="M67.06,30a2.05,2.05,0,0,0,.48,1.55c.57.74,1.07,1.54,1.58,2.32.15.23.27.47.59.24a14,14,0,0,1-.56,3.09c-.28.05-.44-.15-.57-.33-.7-1-1.45-2-2.11-3.06Z"/><path class="cls-54" d="M24,22.21c.24.65.89.85,1.37,1.23,1.56,1.23,3.16,2.4,4.74,3.59a.5.5,0,0,1,.24.41,2.26,2.26,0,0,1-.79.44,20.78,20.78,0,0,1-2.82-2C25.5,24.94,24.27,24,23,23c-.26-.2-.66-.36-.39-.82A1.21,1.21,0,0,1,24,22.21Z"/><path class="cls-55" d="M20.66,22.49l7.41,5.65a1.21,1.21,0,0,0,.63.28,2.87,2.87,0,0,1-.83.57,17.91,17.91,0,0,1-3-2.12c-1.68-1.22-3.3-2.52-4.94-3.79a.75.75,0,0,0-.52-.16c0-.26.19-.26.34-.33C20,22.52,20.33,22.35,20.66,22.49Z"/><path class="cls-56" d="M54.33,63.12a1.91,1.91,0,0,1-1-.13c-1-1.3-1.85-2.72-2.82-4a9.66,9.66,0,0,1-.59-.79,7.35,7.35,0,0,1,1.57-.41c.43-.15.58.19.76.45.94,1.35,1.88,2.7,2.77,4.08.16.25.47.52.27.81s-.53.06-.8.09A.38.38,0,0,1,54.33,63.12Z"/><path class="cls-57" d="M37.6,6.27c-.82-.17-1.31.3-1.78.86a33.24,33.24,0,0,0-3.36,4.73c-.25.44-.2,1.09-.8,1.32-.36.2-.62,0-.87-.22a2.69,2.69,0,0,1,.53-1.55,23,23,0,0,1,3-4.33,1.59,1.59,0,0,0,.35-.52c-.23-.22-.51-.07-.74-.14a.41.41,0,0,1-.26-.15c.36-.26.77-.07,1.16-.15A21.75,21.75,0,0,1,37.6,6.27Z"/><path class="cls-32" d="M59.17,68.64c-.38-.58-.83-1-1.56-.53a.51.51,0,0,1-.74-.18c-.89-1.44-2-2.75-2.79-4.24a3.63,3.63,0,0,1,1.12-.16c.46-.2.69.1.91.41.65,1,1.34,1.9,2,2.87.2.31.4.65.88.53a.71.71,0,0,1,.48,0h.14c.4,0,.67.09.7.54C59.87,68.06,59.62,68.5,59.17,68.64Z"/><path class="cls-58" d="M68,60.43a8.06,8.06,0,0,1-1.14,1.41c-.25.19-.4,0-.52-.17-.92-1.19-1.69-2.47-2.54-3.71a.32.32,0,0,1,0-.34l1.83-.84A33.79,33.79,0,0,1,68,60.43Z"/><path class="cls-59" d="M51.23,63.94c.9-.18,1.39.32,1.84,1,.7,1.1,1.48,2.15,2.2,3.24.19.29.39.48.73.4.85-.19,1.27.32,1.61,1a2.13,2.13,0,0,1-.86.45c-.49.21-.72-.25-1.07-.42l-.15-.11a1.07,1.07,0,0,0-.55-.31,3.85,3.85,0,0,1-.56-.18,4.69,4.69,0,0,1-1.19-1.45c-.7-.94-1.29-2-2-2.9-.14-.2-.33-.42-.14-.7A.08.08,0,0,1,51.23,63.94Z"/><path class="cls-60" d="M34.2,13.89c.63-1,1.12-2,1.79-2.93A21.07,21.07,0,0,1,39.77,7c.17-.14.35-.23.35-.48a4.57,4.57,0,0,1,1.58.28,10.41,10.41,0,0,0-2.36,1.71A19.87,19.87,0,0,0,35,14.17a.39.39,0,0,1-.3.11C34.52,14.21,34.22,14.25,34.2,13.89Z"/><path class="cls-21" d="M43.65,68.19c.52-.15.14-.42,0-.56-1.24-1.84-2.51-3.66-3.75-5.5-.16-.24-.42-.46-.38-.81l1.7.82c1.16,2,2.54,3.78,3.8,5.68a1.4,1.4,0,0,1,.15.23c.08.2.41.35.19.6s-.4,0-.58-.07C44.43,68.45,44,68.49,43.65,68.19Z"/><path class="cls-60" d="M59.45,67.34l-.42.14c-.43-.22-.6-.65-.83-1-.67-1.07-1.42-2.08-2.18-3.09-.52-.34-1.15,0-1.69-.25h.94a2.46,2.46,0,0,0-.56-1L52,58.16c-.13-.2-.23-.42-.51-.41l1.15-.39,5.43,8Z"/><path class="cls-42" d="M50,58.16c.54.08.62.59.87.93.8,1.09,1.56,2.21,2.32,3.32a.93.93,0,0,1,.21.58,6.52,6.52,0,0,1-2.25-.59c-.87-1.09-1.62-2.27-2.39-3.45a.86.86,0,0,1-.18-.52A4.94,4.94,0,0,1,50,58.16Z"/><path class="cls-61" d="M60.86,30.79c.6-1.11,1.41-2.08,1.94-3.24a24.1,24.1,0,0,0,1.31-4.78,5.68,5.68,0,0,1,.71,2.53A7.33,7.33,0,0,1,64,27.85a17.26,17.26,0,0,1-.89,1.82A5.42,5.42,0,0,1,60.86,30.79Z"/><path class="cls-62" d="M67.06,43.36c.91,1.36,1.81,2.71,2.73,4.06.23.35.5.67.75,1a4.58,4.58,0,0,1-.67,1.13A5.66,5.66,0,0,1,68.66,48c-.89-1.27-1.82-2.53-2.58-3.89C66.53,44,66.69,43.55,67.06,43.36Z"/><path class="cls-63" d="M64.9,49.4c.36-.1.54-.4.75-.68.7,1,1.39,2,2.08,3,.09.14.17.28.33.34a6.83,6.83,0,0,1-1.24,1.42c-.26.1-.41-.07-.52-.24-.61-.9-1.27-1.78-1.85-2.7a.48.48,0,0,1-.07-.46C64.53,49.88,64.86,49.74,64.9,49.4Z"/><path class="cls-58" d="M60.85,53.08,62.27,52a.39.39,0,0,1,.25.11q1.14,1.54,2.16,3.15a.25.25,0,0,1,0,.26,5.41,5.41,0,0,1-1.46,1.08.29.29,0,0,1-.29-.14c-.69-1-1.38-1.92-2-2.93A.47.47,0,0,1,60.85,53.08Z"/><path class="cls-58" d="M57.89,48.87l1.4-1.43a5.38,5.38,0,0,1,1.1,1.44c.48.72,1,1.43,1.48,2.13a6.47,6.47,0,0,1-2.11.71s-.06,0-.06,0A7.22,7.22,0,0,1,57.83,49S57.86,48.9,57.89,48.87Z"/><path class="cls-44" d="M65.35,37.44l.71-2.13c.42,0,.57.37.77.65a21.27,21.27,0,0,0,1.89,2.62,11.11,11.11,0,0,1-.85,2.11c-.23.16-.36,0-.45-.17C66.74,39.49,66,38.5,65.35,37.44Z"/><path class="cls-21" d="M41.25,67.2c.7.45,1.53.61,2.26,1,0,.35.3.51.54.69l4.75,3.58a.47.47,0,0,1,.21.35,3.28,3.28,0,0,1-1.13.18,13.14,13.14,0,0,0-2.56-2.12c-1.55-1.2-3.12-2.37-4.68-3.54a.5.5,0,0,1-.24-.4Z"/><path class="cls-37" d="M61,58.49l1.13-.28c.83,1.6,2,3,2.94,4.49.17.28.48.26.71.41a1.39,1.39,0,0,1-.54.57c-.74.55-.85.55-1.38-.2-1-1.36-1.92-2.76-2.85-4.16C60.83,59.07,60.54,58.77,61,58.49Z"/><path class="cls-22" d="M31.84,26.74c-1.2-1.12-2.58-2-3.87-3-.39-.3-.79-.59-1.18-.88-.14-.11-.27-.22-.07-.38a.54.54,0,0,1,.29-.15,3.36,3.36,0,0,1,1.09.17A3,3,0,0,1,29.3,23a19.43,19.43,0,0,0,2.49,2c.31.24.63.48.93.74s.4.29.21.57A3.94,3.94,0,0,1,31.84,26.74Z"/><path class="cls-51" d="M61,58.49c-.19.24-.06.44.07.64C62,60.52,63,61.88,63.9,63.29c.37.57.73.79,1.32.38a1.73,1.73,0,0,1-.56.56c-.07,0-.16,0-.21,0-.78.63-1.12.05-1.5-.51-1-1.44-1.93-2.88-2.91-4.31a1.47,1.47,0,0,1-.32-.69c.06-.13.13-.22.29-.15Z"/><path class="cls-48" d="M54.51,68.89l.56.14c.2.13.36.3.56.42s.41.36.64.52.06.23-.08.3-.24.21-.41.17l-1.26-.9c-.11-.08-.23-.22-.35-.22-1.42,0-1.89-1.19-2.55-2.13s-1.16-1.7-1.74-2.55a1.49,1.49,0,0,1-.33-.69H50.7a31,31,0,0,1,2.13,3c.35.52.76,1,1.07,1.56C54,68.79,54.19,69,54.51,68.89Z"/><path class="cls-64" d="M71.29,37.44,73,34a17.53,17.53,0,0,1,.26,6c-.2.15-.37,0-.49-.11a16.78,16.78,0,0,1-1.49-2.11A.28.28,0,0,1,71.29,37.44Z"/><path class="cls-65" d="M61.88,51c-.1-.05-.24-.07-.3-.15a33.32,33.32,0,0,1-2.29-3.41l1-1.14a7.59,7.59,0,0,1,1.38,1.83,10.63,10.63,0,0,1,1.46,2.3A3.47,3.47,0,0,1,61.88,51Z"/><path class="cls-53" d="M71.29,37.44A7.81,7.81,0,0,0,73.24,40a14.13,14.13,0,0,1-.43,2.53c-.25.05-.4-.12-.53-.28-.72-.9-1.32-1.89-2-2.84a.24.24,0,0,1,0-.26Z"/><path class="cls-66" d="M63.12,50.42a42.91,42.91,0,0,1-2.84-4.13l.86-1.11c0,.43.36.69.58,1l2.12,3.12a1.06,1.06,0,0,0,.45.42A3.47,3.47,0,0,1,63.12,50.42Z"/><path class="cls-65" d="M64.68,55.54,62.27,52,63.53,51a24.59,24.59,0,0,1,2.31,3.57A5.3,5.3,0,0,1,64.68,55.54Z"/><path class="cls-67" d="M68,60.43a16.9,16.9,0,0,1-2.38-3.64l1.27-.69A18.43,18.43,0,0,1,69,59.15,6.47,6.47,0,0,1,68,60.43Z"/><path class="cls-68" d="M70.3,39.13c.66.95,1.32,1.9,2,2.84a5.31,5.31,0,0,0,.52.55l-.43,1.56c-.12-.06-.28-.1-.36-.2a39.3,39.3,0,0,1-2.44-3.64Z"/><path class="cls-69" d="M32.93,26.3c-.3-.67-1-.93-1.5-1.37s-1.28-1-1.93-1.47a.49.49,0,0,1-.23-.4c.21-.11.41,0,.61,0,.57.23,1.18.35,1.77.55.39.2.81.32,1.2.52s.56.21.82.34.94.35,1.24.8l.42.27Z"/><path class="cls-70" d="M65.77,63.11a.58.58,0,0,1-.81-.24c-.89-1.36-1.81-2.7-2.72-4-.13-.19-.31-.36-.11-.61l.85-.28c.81,1.08,1.56,2.2,2.3,3.32a12.45,12.45,0,0,0,.95,1.29A.92.92,0,0,1,65.77,63.11Z"/><path class="cls-49" d="M64.39,39.71l.69-1.58a3.65,3.65,0,0,1,1,1.23c.47.67.91,1.36,1.39,2a4.06,4.06,0,0,1-.73,1.41c-.21.16-.36,0-.47-.13a31.12,31.12,0,0,1-1.89-2.76A.23.23,0,0,1,64.39,39.71Z"/><path class="cls-68" d="M68.72,38.57c-.5,0-.6-.45-.83-.74a20.33,20.33,0,0,0-1.83-2.52l.4-1.54a12.25,12.25,0,0,1,1.85,2.39c.27.34.44.76.83,1Z"/><path class="cls-71" d="M48.56,58.44c.79,1.15,1.58,2.3,2.36,3.45a2.38,2.38,0,0,1,.2.52,7.77,7.77,0,0,1-2.41-1.09c-.4-.64-.84-1.27-1.24-1.91-.15-.24-.4-.48-.15-.81A4.32,4.32,0,0,1,48.56,58.44Z"/><path class="cls-72" d="M66.22,62.55a.55.55,0,0,1-.47-.27q-1.36-2-2.71-4a.93.93,0,0,1-.07-.34l.85-.31,2.73,4a.41.41,0,0,0,.35.19A1.93,1.93,0,0,1,66.22,62.55Z"/><path class="cls-66" d="M65.84,54.53c-.86-1-1.45-2.19-2.26-3.23-.06-.08,0-.22,0-.34l.86-.82a20.63,20.63,0,0,0,2.44,3.4A5.61,5.61,0,0,1,65.84,54.53Z"/><path class="cls-63" d="M68,55.44l1.7-1.11c.52.39.65,1.14,1.27,1.44a11.56,11.56,0,0,1-1.17,2.11c-.22.15-.36,0-.47-.15a21.79,21.79,0,0,1-1.35-2A.26.26,0,0,1,68,55.44Z"/><path class="cls-73" d="M64.39,39.71l1.87,2.66c.13.18.2.43.49.44A5.27,5.27,0,0,1,66,43.93s-.11,0-.13,0a19.61,19.61,0,0,1-2.08-3.06Z"/><path class="cls-70" d="M62.58,57.06a4.51,4.51,0,0,1-1.16.7,27.09,27.09,0,0,1-2.29-3.21.24.24,0,0,1,0-.32l1-.64a29.34,29.34,0,0,1,1.79,2.49A3.45,3.45,0,0,1,62.58,57.06Z"/><path class="cls-74" d="M59.17,54.24c.58.88,1.16,1.77,1.74,2.64a2.33,2.33,0,0,1,.52.88,1.84,1.84,0,0,1-.81.43c-.25.08-.4-.08-.52-.25-.71-.89-1.29-1.86-1.93-2.8a.25.25,0,0,1,0-.32Z"/><path class="cls-66" d="M68,55.44c.47.7.94,1.4,1.4,2.11.11.16.19.33.41.34L69,59.15a15.67,15.67,0,0,1-2.07-3.06Z"/><path class="cls-75" d="M58.48,52a8.62,8.62,0,0,1-2.56.25c-.25-.35-.6-.63-.57-1.12L57,49.7A5,5,0,0,1,58.48,52Z"/><path class="cls-51" d="M58.18,54.83a18.51,18.51,0,0,0,2.44,3.37c-.14.22-.47.15-.59.4l-.29.15a18.43,18.43,0,0,1-2.41-3.42Z"/><path class="cls-76" d="M71,55.78c-.14.05-.29.2-.42,0a6.05,6.05,0,0,1-.85-1.42l2.59-2A11.7,11.7,0,0,1,71,55.78Z"/><path class="cls-77" d="M62.58,57.06a13,13,0,0,1-2.45-3.46l.72-.52c.69,1.24,1.58,2.36,2.37,3.53A1.22,1.22,0,0,1,62.58,57.06Z"/><path class="cls-78" d="M58.48,52,57,49.7l.85-.83a16.29,16.29,0,0,0,1.87,2.84A3,3,0,0,1,58.48,52Z"/><path class="cls-79" d="M47.32,58.61c.12.72.68,1.18,1,1.78.16.29.47.53.38.93a14.28,14.28,0,0,1-3.44-2.58Z"/><path class="cls-80" d="M67.48,41.39a.43.43,0,0,1-.36-.18l-2-3.08a1.35,1.35,0,0,1,.27-.7,15.45,15.45,0,0,1,2,2.66c.16.21.23.52.54.59A1.72,1.72,0,0,1,67.48,41.39Z"/><path class="cls-81" d="M56,63.37a.54.54,0,0,1,.42.22c.88,1.29,1.81,2.53,2.59,3.89-.49.32-.73-.05-1-.38Q57,65.55,55.93,64a.76.76,0,0,0-.73-.44A1.58,1.58,0,0,1,56,63.37Z"/><path class="cls-82" d="M63.11,29.67c0-.91.69-1.55.93-2.37s.51-1.33.77-2A4.3,4.3,0,0,1,63.11,29.67Z"/><path class="cls-83" d="M54.51,68.89c-.33.21-.48.2-.68-.09q-1.49-2.18-3-4.38A2,2,0,0,1,50.7,64h.42c0,.41.34.65.55,1,.79,1.16,1.58,2.31,2.36,3.48A1.24,1.24,0,0,0,54.51,68.89Z"/><path class="cls-84" d="M55.35,51.11c.18.38.59.64.57,1.12a5.87,5.87,0,0,1-1.84-.15A7.56,7.56,0,0,1,55.35,51.11Z"/><path class="cls-81" d="M60.29,67.88a1.37,1.37,0,0,0-.7-.54c.82-.57,1-.57,1.43,0Z"/><path class="cls-83" d="M56.2,70.28c.08-.46-.51-.46-.57-.82.44,0,.64.57,1.12.56A.85.85,0,0,1,56.2,70.28Z"/><path class="cls-85" d="M6.44,49l.13-.29c.21.27.12.59.14.88Z"/><path class="cls-5" d="M28,52.54c.21.26.08.56.11.85A1.54,1.54,0,0,1,28,52.54Z"/><path class="cls-15" d="M21,45.75c-.19-.27-.07-.57-.09-.86A1.93,1.93,0,0,1,21,45.75Z"/><path class="cls-47" d="M19.81,22.77c-.16,0-.32,0-.42.14l-1.27.42a1.5,1.5,0,0,1-.32-1.19,44.7,44.7,0,0,1,1-7.72c.3-1.23.73-2.42,1-3.65a10.05,10.05,0,0,1,2.25-1.27c.49.16.28.51.19.79-.28.87-.63,1.72-.89,2.59A31.54,31.54,0,0,0,20,20.83,8.9,8.9,0,0,1,19.81,22.77Z"/><path class="cls-22" d="M19.8,10.78c.24.19.13.41.05.64a31.54,31.54,0,0,0-1.61,7.69,20.61,20.61,0,0,0-.13,4.23l-.14.14-1.13.43c-.37-.25-.34-.65-.35-1a33.13,33.13,0,0,1,.56-6.72c.25-1.39.58-2.76.89-4.13A8.82,8.82,0,0,1,19.8,10.78Z"/><path class="cls-66" d="M19.81,22.77a8.64,8.64,0,0,1,0-3.27,26.38,26.38,0,0,1,.93-5.44,34.21,34.21,0,0,1,1.28-3.86c.1-.24.25-.47,0-.7a7.86,7.86,0,0,1,2.13-1c.25.3,0,.57-.07.84a23.78,23.78,0,0,0-1.38,3.81,1.59,1.59,0,0,1-.39.49,2.44,2.44,0,0,0-.88,2.44.46.46,0,0,1-.1.46,5.75,5.75,0,0,0-.53,2.65,20.36,20.36,0,0,0-.17,3.28Z"/><path class="cls-86" d="M11.78,28.42l-.29.27c-.37-.14-.44-.47-.47-.8a32.76,32.76,0,0,1-.32-6.8,17.43,17.43,0,0,1,.1-1.83,12.91,12.91,0,0,1,1.67-2.13c.56.22.35.7.32,1.07-.11,1.45-.25,2.89-.24,4.34s.12,2.66.25,4a1.56,1.56,0,0,1,0,.63l-.14.27Z"/><path class="cls-49" d="M14.6,25.46l-.43.55-.69.44a.6.6,0,0,1-.34-.57,34.55,34.55,0,0,1-.09-6c.09-1.29.24-2.57.41-3.84A12,12,0,0,1,15,14.46c.5.2.31.61.26,1-.18,1.3-.38,2.59-.51,3.9-.17,1.8-.07,3.6-.09,5.41C14.68,25,14.76,25.23,14.6,25.46Z"/><path class="cls-34" d="M18,12a.47.47,0,0,1,.13.57,32.21,32.21,0,0,0-1.17,6,17,17,0,0,0-.07,5.29l-.15.28a1.32,1.32,0,0,0-.7.42l-.28.14a1,1,0,0,1-.33-.82,37.7,37.7,0,0,1,1.16-10.78A5.41,5.41,0,0,1,18,12Z"/><path class="cls-87" d="M16.55,13.15a7,7,0,0,1-.34,2.44c-.17,1.36-.4,2.7-.51,4.07-.08,1-.11,2-.12,3.07a7.56,7.56,0,0,0,.14,2c-.23.2-.55.28-.7.57l-.42.15a4,4,0,0,1-.15-1.17,40.4,40.4,0,0,1,.69-9.18.62.62,0,0,0-.12-.66A8,8,0,0,1,16.55,13.15Z"/><path class="cls-88" d="M10.8,19.25a3.75,3.75,0,0,1,.09,2.06c-.26,1.5.14,3,.09,4.45,0,.64.18,1.28.22,1.93a2.3,2.3,0,0,0,.29,1l-.41.58-.42.56-.16.11c-.46-.28-.39-.77-.46-1.19a42.4,42.4,0,0,1-.46-7.37,1.45,1.45,0,0,0,0-.28A11.51,11.51,0,0,1,10.8,19.25Z"/><path class="cls-89" d="M9.55,21.09c.34.2.25.53.24.82a39.28,39.28,0,0,0,.57,7.63,2.86,2.86,0,0,0,.13.4c-.3.22-.31.61-.54.88l-.28.29c-.42,0-.44-.37-.49-.65a44.74,44.74,0,0,1-.72-6.08c0-.4-.07-.79-.1-1.19A10.74,10.74,0,0,1,9.55,21.09Z"/><path class="cls-90" d="M8.36,23.18a.77.77,0,0,1,.31.67,47.39,47.39,0,0,0,.71,6.64.84.84,0,0,0,.3.61l-.6,1.11-.27.27A14.63,14.63,0,0,1,8,28.61a17.56,17.56,0,0,1-.3-2.85.73.73,0,0,0-.3-.61A11.34,11.34,0,0,1,8.36,23.18Z"/><path class="cls-91" d="M13.46,16c.4.73,0,1.46-.05,2.17a32.43,32.43,0,0,0-.09,6.76c.06.5-.11,1,.16,1.52q0,.07,0,.13l-.7.57a6.43,6.43,0,0,1-.37-2.68,29.13,29.13,0,0,1,0-4.27c.05-1,.43-2.05.07-3.08A6.18,6.18,0,0,1,13.46,16Z"/><path class="cls-55" d="M22.63,13.17a9.81,9.81,0,0,1,.9-2.9,7.72,7.72,0,0,0,.65-1.75A6.22,6.22,0,0,1,26,7.82c.31.28.33.29.13.7-.34.69-.64,1.4-1,2.1a8.24,8.24,0,0,0-.58,1.57A3.27,3.27,0,0,1,22.63,13.17Z"/><path class="cls-37" d="M31,6.56a2.71,2.71,0,0,1,1.26-.15c.42.09.46.15.22.54-.4.66-.92,1.23-1.31,1.89A21.13,21.13,0,0,0,29.42,12a.84.84,0,0,1-.33.44A1.51,1.51,0,0,1,27.68,12c.76-1.2,1.28-2.53,2.07-3.72A17.63,17.63,0,0,1,31,6.56Z"/><path class="cls-92" d="M24.47,12.2a10.68,10.68,0,0,1,1.07-2.83,9.57,9.57,0,0,1,.49-1c.09-.18.23-.37,0-.55a4.91,4.91,0,0,1,1.83-.56c.46.09.5.17.25.67-.46.91-1,1.77-1.39,2.72-.13.34-.25.7-.39,1A2.66,2.66,0,0,1,24.47,12.2Z"/><path class="cls-51" d="M29.12,12.35A19.52,19.52,0,0,1,32,7.29a6.58,6.58,0,0,0,.44-.63c.11-.2-.07-.22-.21-.25.45-.26.94-.09,1.41-.14h.28c.19.27,0,.44-.16.61a24.09,24.09,0,0,0-3.38,5.3,1,1,0,0,1-.44.53C29.59,12.76,29.26,12.77,29.12,12.35Z"/><path class="cls-50" d="M31,6.56a7.52,7.52,0,0,1-1.18,2c-.56,1-1.1,1.95-1.58,3-.11.24-.21.41-.49.37a.77.77,0,0,1-1-.2c.81-1.31,1.37-2.76,2.23-4a4.26,4.26,0,0,1,.61-.85A7,7,0,0,1,31,6.56Z"/><path class="cls-93" d="M29.54,6.83a8,8,0,0,1-1,1.9,25.63,25.63,0,0,0-1.2,2.38c-.12.28-.26.49-.58.53a.28.28,0,0,1-.42,0c-.21-.26,0-.47.08-.7A25.88,25.88,0,0,1,28,7.75c.14-.24.21-.43-.16-.5A6,6,0,0,1,29.54,6.83Z"/><path class="cls-32" d="M34.9,25.3l-1.28-.68a9.28,9.28,0,0,1-.28-3.88,1.39,1.39,0,0,0-.12-.95.24.24,0,0,1,0-.3,1.43,1.43,0,0,0,1.12-1c.16-.24.22-.57.54-.69a.79.79,0,0,1,.12.8,14.8,14.8,0,0,0-.13,6.1A3,3,0,0,1,34.9,25.3Z"/><path class="cls-94" d="M34.9,17.84c-.14.23-.2.52-.42.71a.89.89,0,0,1-.12-.93c.33-1.1.6-2.21,1-3.3l1,.28A15.14,15.14,0,0,1,34.9,17.84Z"/><path class="cls-11" d="M50.63,13.75a7.89,7.89,0,0,1,7.82,8A8.17,8.17,0,0,1,50.22,30a7.76,7.76,0,0,1-7.62-8A8.06,8.06,0,0,1,50.63,13.75Z"/><path class="cls-2" d="M30.81,12.9l.85.28a.3.3,0,0,0,.28.14c.19.25.05.5,0,.74-.46,1.65-1,3.29-1.43,4.94a1.31,1.31,0,0,1-.59.92,2.27,2.27,0,0,1-1.44,0c-.25-.22-.13-.47-.06-.71L30,13.59c.08-.29.14-.6.45-.76A.34.34,0,0,1,30.81,12.9Z"/><path class="cls-95" d="M30,19.8c.64-1.43.89-3,1.4-4.46.23-.66.39-1.34.57-2a1.4,1.4,0,0,1,.85.28.41.41,0,0,1,.07.4c-.54,1.89-1,3.79-1.68,5.65a1,1,0,0,1-.49.27.87.87,0,0,1-.65,0Z"/><path class="cls-96" d="M31.1,19.67c.43-2.06,1.16-4,1.69-6.07h.28l.14.14a.58.58,0,0,1,.07.6c-.48,1.61-.92,3.24-1.42,4.84a1,1,0,0,1-.32.54A.37.37,0,0,1,31.1,19.67Z"/><path class="cls-97" d="M35.33,14.31c.22.56-.18,1-.26,1.53-.15.91-.69,1.74-.58,2.7-.16.57-.37,1.09-1.13,1a.58.58,0,0,1-.08-.6c.43-1.52.82-3,1.33-4.53a.56.56,0,0,1,.16-.23H35A.29.29,0,0,0,35.33,14.31Z"/><path class="cls-1" d="M26.3,11.61l.42,0a2.21,2.21,0,0,0,1,.29,3.88,3.88,0,0,0,1.42.43,1.48,1.48,0,0,0,.85.28.31.31,0,0,1,.06.21c-.55,2.25-1.27,4.46-1.91,6.68a1,1,0,0,1-.26.49,1.49,1.49,0,0,1-.8.14h-.24a4,4,0,0,0-1.28.09,7.66,7.66,0,0,1-1.9,0c-.57-.19-.76-.75-1.11-1.15a5,5,0,0,1-.74-1.51l-.42-1a2.88,2.88,0,0,1,1.27-3.4l1.84-1Z"/><path class="cls-23" d="M22.62,19l.86,1.1c.86.14.88.14.9,1.1,0,.37.22.66.23,1H22.35A3.64,3.64,0,0,1,22.62,19Z"/><path class="cls-55" d="M22.62,19a8.94,8.94,0,0,0-.27,3.22l-.54.11c-.33.06-.6,0-.57-.42.09-1.28.2-2.55.32-3.83a1.66,1.66,0,0,1,.23-.5A9.07,9.07,0,0,1,22.62,19Z"/><path class="cls-98" d="M24.61,22.21c-.5-.17-.45-.59-.42-1,.05-.57,0-1-.71-1.13h2.11a.14.14,0,0,1,.21,0,3.84,3.84,0,0,1-.21,2.07Z"/><path class="cls-99" d="M25.6,22.21a9.8,9.8,0,0,1,.14-2.11c.36-.19.76,0,1.12-.13H27a3.67,3.67,0,0,1,0,2.52h-.28C26.39,22.25,26,22.38,25.6,22.21Z"/><path class="cls-100" d="M34.76,14.17a28.59,28.59,0,0,1-.84,3.14,21.33,21.33,0,0,0-.57,2.21l-.14.14a.48.48,0,0,1-.31.16.92.92,0,0,1-.68-.12.76.76,0,0,1,0-.61c.43-1.57.92-3.12,1.36-4.69a.81.81,0,0,1,.32-.52h.28Z"/><path class="cls-101" d="M33.92,13.89l-1.69,5.78a.48.48,0,0,1-.7,0l1.69-5.92A1.15,1.15,0,0,1,33.92,13.89Z"/><path class="cls-38" d="M30,12.75v-.13a24.24,24.24,0,0,1,3.82-6,1,1,0,0,0,.12-.32c.34,0,.84-.17,1,.09s-.3.58-.5.81a26.28,26.28,0,0,0-2.89,4.2c-.28.49-.43,1-.72,1.52h-.28C30.36,12.81,30.12,13,30,12.75Z"/><path class="cls-83" d="M55.64,69.46a.67.67,0,0,1-.56-.42A.67.67,0,0,1,55.64,69.46Z"/><path class="cls-26" d="M28.42,19.82l1.56,0v0c0,.05.11.1.12.17a7.33,7.33,0,0,1-.25,3.2,1,1,0,0,1-.56-.14l-1.13-.42A4.93,4.93,0,0,1,28.05,20C28.12,19.79,28.21,19.68,28.42,19.82Z"/><path class="cls-51" d="M28.13,20q0,1.34,0,2.68L27,22.49V20l.85,0A.21.21,0,0,1,28.13,20Z"/><path class="cls-102" d="M29.83,23.2c-.1-1.13.22-2.25.14-3.38h.71a.37.37,0,0,1,.13-.06c1.13-.09,1.17-.06,1.21,1.08,0,.7,0,1.4,0,2.09,0,.32,0,.67-.36.84A5.46,5.46,0,0,1,29.83,23.2Z"/><path class="cls-103" d="M31.65,23.77A16.35,16.35,0,0,0,31.77,20c0-.17-.18-.19-.32-.19h-.77c.11-.16.27-.13.43-.14h1.83c.23.43.06.88.07,1.31,0,.82,0,1.64,0,2.47a1.1,1.1,0,0,1-.22.86C32.43,24.09,32,24.07,31.65,23.77Z"/><path class="cls-104" d="M32.79,24.31c0-1.16,0-2.32,0-3.48a3.7,3.7,0,0,1,.15-1.16h.28c.34,0,.48.16.42.47a19.19,19.19,0,0,0,0,4.49Z"/><path class="cls-21" d="M44.87,18c-.16-.24,0-.42.14-.56a6.89,6.89,0,0,1,11.12,0,7.35,7.35,0,0,1-1.81,10.56,6.94,6.94,0,0,1-10.7-4.53,7.36,7.36,0,0,1,.52-4.55c.09-.21.15-.5.49-.46a.21.21,0,0,1,.08.16,1.09,1.09,0,0,0,.06.72c.1.25.27.48.19.77a6,6,0,0,0,5.27,7.91,6.19,6.19,0,0,0,6.2-5.79,5.89,5.89,0,0,0-5-6.3A5.65,5.65,0,0,0,47.09,17c-.21.15-.38.35-.6.49A7.15,7.15,0,0,0,44.87,18Z"/><path class="cls-105" d="M44.87,18c.39-.59,1-.59,1.6-.59a1.25,1.25,0,0,1,1.15.7,1.78,1.78,0,0,1-1.69,2.59c-.43-.12-.87-.22-1-.72l-.29-.72a1.4,1.4,0,0,1,0-.69l0-.16Z"/><path class="cls-5" d="M28.13,20l-.28,0c.57-2,1.13-4,1.71-6A2.48,2.48,0,0,1,30,12.75c.19,0,.41,0,.55.15-.63,1.43-.91,3-1.4,4.44-.27.82-.48,1.65-.72,2.48A.32.32,0,0,0,28.13,20Z"/><path class="cls-51" d="M26.86,20c-.35.25-.75.06-1.12.13h-.14C26,19.84,26.43,20,26.86,20Z"/><path class="cls-4" d="M47.49,18.11c-.22-.41-.66-.51-1-.72a4.58,4.58,0,0,1,3-1.65,5.58,5.58,0,0,1,5.76,2.07,6,6,0,0,1,.93,6.33,6.08,6.08,0,0,1-5.83,4,6,6,0,0,1-5.82-5.88c0-.77-.2-1.6.39-2.28a2.41,2.41,0,0,0,1,.54.92.92,0,0,1,.13.8A4.52,4.52,0,0,0,55,22.82a4.54,4.54,0,0,0-4.42-5.64,4.9,4.9,0,0,0-2.27.68C48,18,47.8,18.21,47.49,18.11Z"/><path class="cls-11" d="M44.61,18.55v.69A.54.54,0,0,1,44.61,18.55Z"/><path class="cls-2" d="M47.49,18.11A5.82,5.82,0,0,1,50.74,17a4.68,4.68,0,0,1,4.47,4.53,4.81,4.81,0,0,1-3.08,4.86,4.68,4.68,0,0,1-6.24-3.45,11,11,0,0,1,0-2.43C47.44,20.28,47.94,19.52,47.49,18.11Z"/><path class="cls-5" d="M48.59,21.84a2,2,0,1,1,3.95,0,2.27,2.27,0,0,1-2.07,2.1A2,2,0,0,1,48.59,21.84Z"/><path class="cls-106" d="M50.48,22.78c-.54,0-.88-.25-.91-.83a.9.9,0,0,1,1-1,1,1,0,0,1,1,.91A1.1,1.1,0,0,1,50.48,22.78Z"/><path class="cls-107" d="M102.25,72.32a5.94,5.94,0,1,1,5.94-5.94A6,6,0,0,1,102.25,72.32Zm5-14.46V26.75a14.72,14.72,0,0,0-4.66-10.2,15,15,0,0,0-10.2-4.66h-5V2L72.53,16.84,87.39,31.7V21.79h5a5.18,5.18,0,0,1,3.42,1.54,4.67,4.67,0,0,1,1.54,3.42V57.85a9.91,9.91,0,1,0,9.91,0Z"/></svg>