<?xml version="1.0" encoding="utf-8"?>
<!-- Generator: Adobe Illustrator 20.1.0, SVG Export Plug-In . SVG Version: 6.00 Build 0)  -->
<svg version="1.1" id="Layer_1" xmlns="http://www.w3.org/2000/svg" xmlns:xlink="http://www.w3.org/1999/xlink" x="0px" y="0px"
	 viewBox="0 0 162.8 158.9" style="enable-background:new 0 0 162.8 158.9;" xml:space="preserve">
<style type="text/css">
	.st0{fill:#FFFFFF;}
	.st1{fill:#F46663;}
</style>
<g id="Logo_Mark_1_">
	<g>
		<g>
			<path class="st0" d="M81.8,132.3c20.2,0,37.6-11.1,45.9-28.8h-3.5c-8,15.9-24,25.7-42.5,25.7c-18.5,0-34.4-9.8-42.5-25.7h-3.5
				C44.2,121.2,61.6,132.3,81.8,132.3z"/>
		</g>
		<g>
			<path class="st0" d="M10.3,54.9c10-29.3,37.8-48.5,71.6-48.5c33.8,0,61.6,19.2,71.6,48.5h3.4C146.7,23.7,117.4,3.2,81.8,3.2
				C46.3,3.2,17,23.7,6.9,54.9H10.3z"/>
		</g>
		<g>
			<path class="st0" d="M81.8,26.1c-20.2,0-37.6,11.1-45.9,28.8h3.5c8-15.9,24-25.7,42.5-25.7c18.5,0,34.4,9.8,42.5,25.7h3.5
				C119.5,37.2,102.1,26.1,81.8,26.1z"/>
		</g>
		<g>
			<path class="st0" d="M153.4,103.5c-10,29.3-37.8,48.5-71.6,48.5c-33.8,0-61.6-19.2-71.6-48.5H6.9c10.1,31.2,39.4,51.7,74.9,51.7
				c35.5,0,64.9-20.5,74.9-51.7H153.4z"/>
		</g>
	</g>
	<g>
		<g>
			<path class="st1" d="M20.4,95.2c-8.8,0-16-7.2-16-16s7.2-16,16-16s16,7.2,16,16S29.3,95.2,20.4,95.2z M20.4,66.1
				c-7.2,0-13.1,5.9-13.1,13.1s5.9,13.1,13.1,13.1s13.1-5.9,13.1-13.1S27.7,66.1,20.4,66.1z"/>
		</g>
	</g>
	<g>
		<g>
			<path class="st1" d="M143.1,95.2c-8.8,0-16-7.2-16-16s7.2-16,16-16c8.8,0,16,7.2,16,16S151.9,95.2,143.1,95.2z M143.1,66.1
				c-7.2,0-13.1,5.9-13.1,13.1s5.9,13.1,13.1,13.1s13.1-5.9,13.1-13.1S150.3,66.1,143.1,66.1z"/>
		</g>
	</g>
</g>
</svg>
