<svg id="Layer_1" data-name="Layer 1" xmlns="http://www.w3.org/2000/svg" viewBox="0 0 117.14 81.23"><defs><style>.cls-1{fill:#fff;}.cls-2{fill:#8ed6fb;}.cls-3{fill:#1c78c0;}.cls-4{fill:#f5655f;fill-rule:evenodd;}</style></defs><title>webpack-day-logo</title><path class="cls-1" d="M39,1.23,74,21V60.66L39,80.47,4,60.66V21Z"/><path class="cls-2" d="M67.77,59.3,40.16,74.92V62.75l17.2-9.47,10.41,6Zm1.89-1.71V24.93l-10.1,5.84v21l10.1,5.83ZM10.12,59.3,37.73,74.92V62.75L20.52,53.29l-10.4,6ZM8.23,57.59V24.93l10.1,5.84v21ZM9.42,22.81l28.32-16V18.55l-18.14,10-.14.08-10-5.8Zm59.06,0-28.32-16V18.55l18.14,10,.14.08,10-5.79Z"/><path class="cls-3" d="M37.73,60l-17-9.34V32.16l17,9.8Zm2.43,0,17-9.33V32.16l-17,9.8ZM21.91,30l17-9.37L56,30l-17,9.84Z"/><path class="cls-4" d="M103.87,72A5.94,5.94,0,1,1,109.81,66,6,6,0,0,1,103.87,72Zm5-14.46V26.39a14.72,14.72,0,0,0-4.66-10.2A15,15,0,0,0,94,11.53H89V1.62L74.15,16.48,89,31.34V21.44h5A5.18,5.18,0,0,1,97.38,23a4.67,4.67,0,0,1,1.54,3.42V57.5a9.91,9.91,0,1,0,9.91,0Z"/></svg>